<svg xmlns="http://www.w3.org/2000/svg" xmlns:xlink="http://www.w3.org/1999/xlink" xmlns:inkscape="http://www.inkscape.org/namespaces/inkscape" version="1.1" width="792" height="288" viewBox="0 0 792 288">
<defs>
<clipPath id="clip_0">
<path transform="matrix(1,0,0,-1,0,288)" d="M57.62 53.48H776.88V272.88H57.62Z"/>
</clipPath>
<clipPath id="clip_1">
<path transform="matrix(1,0,0,-1,0,288)" d="M57.62 53.48H776.88V272.88H57.62Z"/>
</clipPath>
<clipPath id="clip_2">
<path transform="matrix(1,0,0,-1,0,288)" d="M57.62 53.48H776.88V272.88H57.62Z"/>
</clipPath>
<clipPath id="clip_3">
<path transform="matrix(1,0,0,-1,0,288)" d="M57.62 53.48H776.88V272.88H57.62Z"/>
</clipPath>
<clipPath id="clip_4">
<path transform="matrix(1,0,0,-1,0,288)" d="M57.62 53.48H776.88V272.88H57.62Z"/>
</clipPath>
<clipPath id="clip_5">
<path transform="matrix(1,0,0,-1,0,288)" d="M57.62 53.48H776.88V272.88H57.62Z"/>
</clipPath>
<clipPath id="clip_6">
<path transform="matrix(1,0,0,-1,0,288)" d="M57.62 53.48H776.88V272.88H57.62Z"/>
</clipPath>
<clipPath id="clip_7">
<path transform="matrix(1,0,0,-1,0,288)" d="M57.62 53.48H776.88V272.88H57.62Z"/>
</clipPath>
<clipPath id="clip_8">
<path transform="matrix(1,0,0,-1,0,288)" d="M57.62 53.48H776.88V272.88H57.62Z"/>
</clipPath>
<clipPath id="clip_9">
<path transform="matrix(1,0,0,-1,0,288)" d="M57.62 53.48H776.88V272.88H57.62Z"/>
</clipPath>
<clipPath id="clip_10">
<path transform="matrix(1,0,0,-1,0,288)" d="M57.62 53.48H776.88V272.88H57.62Z"/>
</clipPath>
<clipPath id="clip_11">
<path transform="matrix(1,0,0,-1,0,288)" d="M57.62 53.48H776.88V272.88H57.62Z"/>
</clipPath>
<clipPath id="clip_12">
<path transform="matrix(1,0,0,-1,0,288)" d="M57.62 53.48H776.88V272.88H57.62Z"/>
</clipPath>
<clipPath id="clip_13">
<path transform="matrix(1,0,0,-1,766.875,73.471439)" d="M-10.5-7.5H10.5V7.5H-10.5Z"/>
</clipPath>
<clipPath id="clip_14">
<path transform="matrix(1,0,0,-1,268.98365,97.90291)" d="M-10.5-7.5H10.5V7.5H-10.5Z"/>
</clipPath>
<clipPath id="clip_15">
<path transform="matrix(1,0,0,-1,154.25048,215.71996)" d="M-10.5-7.5H10.5V7.5H-10.5Z"/>
</clipPath>
<clipPath id="clip_16">
<path transform="matrix(1,0,0,-1,135.81087,191.95326)" d="M-10.5-7.5H10.5V7.5H-10.5Z"/>
</clipPath>
<clipPath id="clip_17">
<path transform="matrix(1,0,0,-1,130.09256,200.16037)" d="M-10.5-7.5H10.5V7.5H-10.5Z"/>
</clipPath>
<clipPath id="clip_18">
<path transform="matrix(1,0,0,-1,150.42328,172.45539)" d="M-10.5-7.5H10.5V7.5H-10.5Z"/>
</clipPath>
<clipPath id="clip_19">
<path transform="matrix(1,0,0,-1,248.39804,159.75267)" d="M-10.5-7.5H10.5V7.5H-10.5Z"/>
</clipPath>
<clipPath id="clip_20">
<path transform="matrix(1,0,0,-1,161.52494,158.45578)" d="M-10.5-7.5H10.5V7.5H-10.5Z"/>
</clipPath>
<clipPath id="clip_21">
<path transform="matrix(1,0,0,-1,0,288)" d="M57.62 53.48H776.88V272.88H57.62Z"/>
</clipPath>
<clipPath id="clip_22">
<path transform="matrix(1,0,0,-1,766.875,73.471439)" d="M-10.5-7.5H10.5V7.5H-10.5Z"/>
</clipPath>
<clipPath id="clip_23">
<path transform="matrix(1,0,0,-1,268.98365,106.3281)" d="M-10.5-7.5H10.5V7.5H-10.5Z"/>
</clipPath>
<clipPath id="clip_24">
<path transform="matrix(1,0,0,-1,154.25048,215.90467)" d="M-10.5-7.5H10.5V7.5H-10.5Z"/>
</clipPath>
<clipPath id="clip_25">
<path transform="matrix(1,0,0,-1,135.81087,192.81871)" d="M-10.5-7.5H10.5V7.5H-10.5Z"/>
</clipPath>
<clipPath id="clip_26">
<path transform="matrix(1,0,0,-1,130.09256,208.36623)" d="M-10.5-7.5H10.5V7.5H-10.5Z"/>
</clipPath>
<clipPath id="clip_27">
<path transform="matrix(1,0,0,-1,150.42328,175.27252)" d="M-10.5-7.5H10.5V7.5H-10.5Z"/>
</clipPath>
<clipPath id="clip_28">
<path transform="matrix(1,0,0,-1,248.39804,166.25972)" d="M-10.5-7.5H10.5V7.5H-10.5Z"/>
</clipPath>
<clipPath id="clip_29">
<path transform="matrix(1,0,0,-1,161.52494,162.07773)" d="M-10.5-7.5H10.5V7.5H-10.5Z"/>
</clipPath>
<clipPath id="clip_30">
<path transform="matrix(1,0,0,-1,0,288)" d="M57.62 53.48H776.88V272.88H57.62Z"/>
</clipPath>
<clipPath id="clip_31">
<path transform="matrix(1,0,0,-1,0,288)" d="M57.62 53.48H776.88V272.88H57.62Z"/>
</clipPath>
<clipPath id="clip_32">
<path transform="matrix(1,0,0,-1,766.875,73.471439)" d="M-8-8H8V8H-8Z"/>
</clipPath>
<clipPath id="clip_33">
<path transform="matrix(1,0,0,-1,268.98365,102.25051)" d="M-8-8H8V8H-8Z"/>
</clipPath>
<clipPath id="clip_34">
<path transform="matrix(1,0,0,-1,154.25048,215.81238)" d="M-8-8H8V8H-8Z"/>
</clipPath>
<clipPath id="clip_35">
<path transform="matrix(1,0,0,-1,135.81087,192.38742)" d="M-8-8H8V8H-8Z"/>
</clipPath>
<clipPath id="clip_36">
<path transform="matrix(1,0,0,-1,130.09256,204.39139)" d="M-8-8H8V8H-8Z"/>
</clipPath>
<clipPath id="clip_37">
<path transform="matrix(1,0,0,-1,150.42328,173.87908)" d="M-8-8H8V8H-8Z"/>
</clipPath>
<clipPath id="clip_38">
<path transform="matrix(1,0,0,-1,248.39804,163.08676)" d="M-8-8H8V8H-8Z"/>
</clipPath>
<clipPath id="clip_39">
<path transform="matrix(1,0,0,-1,161.52494,160.29174)" d="M-8-8H8V8H-8Z"/>
</clipPath>
</defs>
<path transform="matrix(1,0,0,-1,0,288)" d="M0 0H792V288H0Z" fill="#ffffff"/>
<path transform="matrix(1,0,0,-1,0,288)" d="M57.62 53.48H776.88V272.88H57.62Z" fill="#ffffff"/>
<g clip-path="url(#clip_0)">
<path transform="matrix(1,0,0,-1,0,288)" stroke-width=".8" stroke-linecap="butt" stroke-dasharray="2.96,1.28" stroke-linejoin="round" fill="none" stroke="#b0b0b0" stroke-opacity=".5" d="M78.48658 53.48V272.88"/>
</g>
<path transform="matrix(1,0,0,-1,0,288)" d="M78.48658 53.48V49.98"/>
<path transform="matrix(1,0,0,-1,0,288)" stroke-width=".8" stroke-linecap="butt" stroke-linejoin="round" fill="none" stroke="#000000" d="M78.48658 53.48V49.98"/>
<path transform="matrix(.014,0,0,-.014,74.033458,252.16063)" d="M124 83H285V639L110 604V694L284 729H383V83H544V0H124V83Z"/>
<text fill-opacity="0" xml:space="preserve" transform="matrix(1 0 -0 1 74.033458 252.16063)" font-size="14" font-family="DejaVuSans"><tspan y="0" x="0">1</tspan></text>
<g clip-path="url(#clip_1)">
<path transform="matrix(1,0,0,-1,0,288)" stroke-width=".8" stroke-linecap="butt" stroke-dasharray="2.96,1.28" stroke-linejoin="round" fill="none" stroke="#b0b0b0" stroke-opacity=".5" d="M215.76393 53.48V272.88"/>
</g>
<path transform="matrix(1,0,0,-1,0,288)" d="M215.76393 53.48V49.98"/>
<path transform="matrix(1,0,0,-1,0,288)" stroke-width=".8" stroke-linecap="butt" stroke-linejoin="round" fill="none" stroke="#000000" d="M215.76393 53.48V49.98"/>
<path transform="matrix(.014,0,0,-.014,211.3108,252.16063)" d="M192 83H536V0H73V83C110 121 161 173 226 239 290 304 331 346 348 365 380 400 402 430 414 455 426 479 433 504 433 528 433 566 419 598 392 622 365 646 330 659 286 659 255 659 222 653 188 643 154 632 117 616 78 594V694C118 710 155 722 189 730 223 738 255 742 284 742 359 742 419 723 464 685 509 647 532 597 532 534 532 504 526 475 515 449 504 422 484 390 454 354 446 344 420 317 376 272 332 227 271 164 192 83Z"/>
<text fill-opacity="0" xml:space="preserve" transform="matrix(1 0 -0 1 211.3108 252.16063)" font-size="14" font-family="DejaVuSans"><tspan y="0" x="0">2</tspan></text>
<g clip-path="url(#clip_2)">
<path transform="matrix(1,0,0,-1,0,288)" stroke-width=".8" stroke-linecap="butt" stroke-dasharray="2.96,1.28" stroke-linejoin="round" fill="none" stroke="#b0b0b0" stroke-opacity=".5" d="M353.0413 53.48V272.88"/>
</g>
<path transform="matrix(1,0,0,-1,0,288)" d="M353.0413 53.48V49.98"/>
<path transform="matrix(1,0,0,-1,0,288)" stroke-width=".8" stroke-linecap="butt" stroke-linejoin="round" fill="none" stroke="#000000" d="M353.0413 53.48V49.98"/>
<path transform="matrix(.014,0,0,-.014,348.58818,252.16063)" d="M378 643 129 254H378V643ZM352 729H476V254H580V172H476V0H378V172H49V267L352 729Z"/>
<text fill-opacity="0" xml:space="preserve" transform="matrix(1 0 -0 1 348.58818 252.16063)" font-size="14" font-family="DejaVuSans"><tspan y="0" x="0">4</tspan></text>
<g clip-path="url(#clip_3)">
<path transform="matrix(1,0,0,-1,0,288)" stroke-width=".8" stroke-linecap="butt" stroke-dasharray="2.96,1.28" stroke-linejoin="round" fill="none" stroke="#b0b0b0" stroke-opacity=".5" d="M490.31864 53.48V272.88"/>
</g>
<path transform="matrix(1,0,0,-1,0,288)" d="M490.31864 53.48V49.98"/>
<path transform="matrix(1,0,0,-1,0,288)" stroke-width=".8" stroke-linecap="butt" stroke-linejoin="round" fill="none" stroke="#000000" d="M490.31864 53.48V49.98"/>
<path transform="matrix(.014,0,0,-.014,485.8655,252.16063)" d="M318 346C271 346 234 333 207 308 180 283 167 249 167 205 167 161 180 126 207 101 234 76 271 64 318 64 364 64 401 76 428 102 455 127 469 161 469 205 469 249 455 283 429 308 402 333 365 346 318 346ZM219 388C177 398 144 418 120 447 96 476 85 511 85 553 85 611 105 657 147 691 188 725 245 742 318 742 390 742 447 725 489 691 530 657 551 611 551 553 551 511 539 476 515 447 491 418 459 398 417 388 464 377 501 355 528 323 554 291 568 251 568 205 568 134 546 80 503 43 459 5 397-13 317-13 237-13 175 5 132 43 89 80 68 134 68 205 68 251 81 291 108 323 134 355 171 377 219 388ZM183 544C183 506 194 476 218 455 242 434 275 424 318 424 360 424 393 434 417 455 441 476 453 506 453 544 453 582 441 611 417 632 393 653 360 664 318 664 275 664 242 653 218 632 194 611 183 582 183 544Z"/>
<text fill-opacity="0" xml:space="preserve" transform="matrix(1 0 -0 1 485.8655 252.16063)" font-size="14" font-family="DejaVuSans"><tspan y="0" x="0">8</tspan></text>
<g clip-path="url(#clip_4)">
<path transform="matrix(1,0,0,-1,0,288)" stroke-width=".8" stroke-linecap="butt" stroke-dasharray="2.96,1.28" stroke-linejoin="round" fill="none" stroke="#b0b0b0" stroke-opacity=".5" d="M627.596 53.48V272.88"/>
</g>
<path transform="matrix(1,0,0,-1,0,288)" d="M627.596 53.48V49.98"/>
<path transform="matrix(1,0,0,-1,0,288)" stroke-width=".8" stroke-linecap="butt" stroke-linejoin="round" fill="none" stroke="#000000" d="M627.596 53.48V49.98"/>
<path transform="matrix(.014,0,0,-.014,618.68978,252.16063)" d="M124 83H285V639L110 604V694L284 729H383V83H544V0H124V83Z"/>
<text fill-opacity="0" xml:space="preserve" transform="matrix(1 0 -0 1 618.68978 252.16063)" font-size="14" font-family="DejaVuSans"><tspan y="0" x="0">1</tspan></text>
<path transform="matrix(.014,0,0,-.014,627.59378,252.16063)" d="M330 404C286 404 251 388 225 358 199 328 186 286 186 234 186 181 199 139 225 109 251 79 286 64 330 64 374 64 409 79 435 109 461 139 474 181 474 234 474 286 461 328 435 358 409 388 374 404 330 404ZM526 713V623C501 635 476 644 451 650 425 656 400 659 376 659 310 659 260 637 226 593 192 549 172 482 168 394 187 422 211 444 240 459 269 474 301 482 336 482 409 482 467 459 509 415 551 371 573 310 573 234 573 159 550 99 506 54 462 9 403-13 330-13 246-13 181 19 137 83 92 147 70 241 70 364 70 479 97 571 152 639 206 707 280 742 372 742 396 742 421 739 447 735 472 730 498 723 526 713Z"/>
<text fill-opacity="0" xml:space="preserve" transform="matrix(1 0 -0 1 618.68978 252.16063)" font-size="14" font-family="DejaVuSans"><tspan y="0" x="8.904">6</tspan></text>
<g clip-path="url(#clip_5)">
<path transform="matrix(1,0,0,-1,0,288)" stroke-width=".8" stroke-linecap="butt" stroke-dasharray="2.96,1.28" stroke-linejoin="round" fill="none" stroke="#b0b0b0" stroke-opacity=".5" d="M764.87338 53.48V272.88"/>
</g>
<path transform="matrix(1,0,0,-1,0,288)" d="M764.87338 53.48V49.98"/>
<path transform="matrix(1,0,0,-1,0,288)" stroke-width=".8" stroke-linecap="butt" stroke-linejoin="round" fill="none" stroke="#000000" d="M764.87338 53.48V49.98"/>
<path transform="matrix(.014,0,0,-.014,755.9671,252.16063)" d="M406 393C453 383 490 362 516 330 542 298 556 258 556 212 556 140 531 84 482 45 432 6 362-13 271-13 240-13 208-10 176-4 144 1 110 10 76 22V117C103 101 133 89 166 81 198 73 232 69 268 69 330 69 377 81 409 105 441 129 458 165 458 212 458 254 443 288 413 312 383 336 341 349 287 349H202V430H291C339 430 376 439 402 459 428 478 441 506 441 543 441 580 427 609 401 629 374 649 336 659 287 659 260 659 231 656 200 650 169 644 135 635 98 623V711C135 721 170 729 203 734 235 739 266 742 296 742 370 742 429 725 473 691 517 657 539 611 539 553 539 513 527 479 504 451 481 423 448 403 406 393Z"/>
<text fill-opacity="0" xml:space="preserve" transform="matrix(1 0 -0 1 755.9671 252.16063)" font-size="14" font-family="DejaVuSans"><tspan y="0" x="0">3</tspan></text>
<path transform="matrix(.014,0,0,-.014,764.8711,252.16063)" d="M192 83H536V0H73V83C110 121 161 173 226 239 290 304 331 346 348 365 380 400 402 430 414 455 426 479 433 504 433 528 433 566 419 598 392 622 365 646 330 659 286 659 255 659 222 653 188 643 154 632 117 616 78 594V694C118 710 155 722 189 730 223 738 255 742 284 742 359 742 419 723 464 685 509 647 532 597 532 534 532 504 526 475 515 449 504 422 484 390 454 354 446 344 420 317 376 272 332 227 271 164 192 83Z"/>
<text fill-opacity="0" xml:space="preserve" transform="matrix(1 0 -0 1 755.9671 252.16063)" font-size="14" font-family="DejaVuSans"><tspan y="0" x="8.904">2</tspan></text>
<path transform="matrix(.014,0,0,-.014,317.46095,269.7075)" d="M444 342C465 334 486 319 506 296 526 272 546 240 566 199L666 0H560L467 187C443 235 419 268 397 284 374 300 343 308 304 308H197V0H98V729H321C404 729 466 711 507 677 548 642 569 589 569 519 569 473 558 434 537 404 515 374 484 353 444 342ZM197 648V389H321C368 389 404 400 428 422 452 444 465 476 465 519 465 561 452 593 428 615 404 637 368 648 321 648H197Z"/>
<text fill-opacity="0" xml:space="preserve" transform="matrix(1 0 -0 1 317.46095 269.7075)" font-size="14" font-family="DejaVuSans"><tspan y="0" x="0">R</tspan></text>
<path transform="matrix(.014,0,0,-.014,326.56596,269.7075)" d="M562 296V252H149C153 190 171 142 205 110 238 78 284 62 344 62 378 62 412 66 444 74 476 82 509 95 541 113V28C509 14 476 3 442-3 408-9 373-13 339-13 251-13 182 12 131 62 80 112 55 181 55 268 55 357 79 428 127 481 175 533 241 560 323 560 397 560 455 536 498 489 540 441 562 377 562 296ZM472 322C471 371 457 410 431 440 404 469 368 484 324 484 274 484 234 469 204 441 174 413 156 373 152 322H472Z"/>
<text fill-opacity="0" xml:space="preserve" transform="matrix(1 0 -0 1 317.46095 269.7075)" font-size="14" font-family="DejaVuSans"><tspan y="0" x="9.1050009">e</tspan></text>
<path transform="matrix(.014,0,0,-.014,335.17594,269.7075)" d="M94 760H184V0H94V760Z"/>
<text fill-opacity="0" xml:space="preserve" transform="matrix(1 0 -0 1 317.46095 269.7075)" font-size="14" font-family="DejaVuSans"><tspan y="0" x="17.715">l</tspan></text>
<path transform="matrix(.014,0,0,-.014,339.06794,269.7075)" d="M343 275C270 275 220 266 192 250 164 233 150 205 150 165 150 133 160 107 181 89 202 70 231 61 267 61 317 61 357 78 387 114 417 149 432 196 432 255V275H343ZM522 312V0H432V83C411 49 385 25 355 10 325-5 287-13 243-13 187-13 142 2 109 33 76 64 60 106 60 159 60 220 80 266 122 298 163 329 224 345 306 345H432V354C432 395 418 427 391 450 364 472 326 484 277 484 245 484 215 480 185 472 155 464 127 453 100 439V522C132 534 164 544 195 550 226 556 256 560 286 560 365 560 424 539 463 498 502 457 522 395 522 312Z"/>
<text fill-opacity="0" xml:space="preserve" transform="matrix(1 0 -0 1 317.46095 269.7075)" font-size="14" font-family="DejaVuSans"><tspan y="0" x="21.607">a</tspan></text>
<path transform="matrix(.014,0,0,-.014,347.64994,269.7075)" d="M183 702V547H368V477H183V180C183 135 189 106 201 94 213 81 238 75 276 75H368V0H276C206 0 158 13 132 39 106 65 93 112 93 180V477H27V547H93V702H183Z"/>
<text fill-opacity="0" xml:space="preserve" transform="matrix(1 0 -0 1 317.46095 269.7075)" font-size="14" font-family="DejaVuSans"><tspan y="0" x="30.189002">t</tspan></text>
<path transform="matrix(.014,0,0,-.014,353.13795,269.7075)" d="M94 547H184V0H94V547ZM94 760H184V646H94V760Z"/>
<text fill-opacity="0" xml:space="preserve" transform="matrix(1 0 -0 1 317.46095 269.7075)" font-size="14" font-family="DejaVuSans"><tspan y="0" x="35.677003">i</tspan></text>
<path transform="matrix(.014,0,0,-.014,357.02995,269.7075)" d="M30 547H125L296 88 467 547H562L357 0H235L30 547Z"/>
<text fill-opacity="0" xml:space="preserve" transform="matrix(1 0 -0 1 317.46095 269.7075)" font-size="14" font-family="DejaVuSans"><tspan y="0" x="39.569005">v</tspan></text>
<path transform="matrix(.014,0,0,-.014,365.31794,269.7075)" d="M562 296V252H149C153 190 171 142 205 110 238 78 284 62 344 62 378 62 412 66 444 74 476 82 509 95 541 113V28C509 14 476 3 442-3 408-9 373-13 339-13 251-13 182 12 131 62 80 112 55 181 55 268 55 357 79 428 127 481 175 533 241 560 323 560 397 560 455 536 498 489 540 441 562 377 562 296ZM472 322C471 371 457 410 431 440 404 469 368 484 324 484 274 484 234 469 204 441 174 413 156 373 152 322H472Z"/>
<text fill-opacity="0" xml:space="preserve" transform="matrix(1 0 -0 1 317.46095 269.7075)" font-size="14" font-family="DejaVuSans"><tspan y="0" x="47.857004">e</tspan></text>
<path transform="matrix(.014,0,0,-.014,373.92796,269.7075)" d=""/>
<text fill-opacity="0" xml:space="preserve" transform="matrix(1 0 -0 1 317.46095 269.7075)" font-size="14" font-family="DejaVuSans"><tspan y="0" x="56.467004"> </tspan></text>
<path transform="matrix(.014,0,0,-.014,378.37995,269.7075)" d="M644 673V569C610 599 575 622 537 638 499 653 460 661 418 661 334 661 270 635 226 584 182 533 160 460 160 364 160 268 182 194 226 143 270 92 334 67 418 67 460 67 499 74 537 90 575 105 610 128 644 159V56C609 32 572 15 534 4 496-7 455-13 412-13 302-13 215 20 151 87 87 154 56 246 56 364 56 481 87 573 151 641 215 708 302 742 412 742 456 742 497 736 535 725 573 713 610 696 644 673Z"/>
<text fill-opacity="0" xml:space="preserve" transform="matrix(1 0 -0 1 317.46095 269.7075)" font-size="14" font-family="DejaVuSans"><tspan y="0" x="60.919004">C</tspan></text>
<path transform="matrix(.014,0,0,-.014,388.15196,269.7075)" d="M306 484C258 484 220 465 192 427 164 389 150 338 150 273 150 207 163 156 191 118 219 80 257 62 306 62 354 62 392 80 420 118 448 156 462 207 462 273 462 337 448 389 420 427 392 465 354 484 306 484ZM306 560C384 560 445 534 490 484 534 433 557 363 557 273 557 183 534 113 490 63 445 12 384-13 306-13 227-13 165 12 121 63 77 113 55 183 55 273 55 363 77 433 121 484 165 534 227 560 306 560Z"/>
<text fill-opacity="0" xml:space="preserve" transform="matrix(1 0 -0 1 317.46095 269.7075)" font-size="14" font-family="DejaVuSans"><tspan y="0" x="70.691">o</tspan></text>
<path transform="matrix(.014,0,0,-.014,396.71995,269.7075)" d="M520 442C542 482 569 511 600 531 631 550 668 560 711 560 767 560 811 540 842 500 873 460 889 403 889 330V0H799V327C799 379 789 418 771 444 752 469 724 482 686 482 639 482 602 466 575 435 548 404 535 362 535 309V0H445V327C445 379 435 418 417 444 398 469 369 482 331 482 285 482 248 466 221 435 194 404 181 362 181 309V0H91V547H181V462C201 495 226 520 255 536 283 552 317 560 357 560 397 560 430 550 458 530 486 510 506 480 520 442Z"/>
<text fill-opacity="0" xml:space="preserve" transform="matrix(1 0 -0 1 317.46095 269.7075)" font-size="14" font-family="DejaVuSans"><tspan y="0" x="79.259">m</tspan></text>
<path transform="matrix(.014,0,0,-.014,410.35597,269.7075)" d="M181 82V-207H91V547H181V464C199 496 223 520 252 536 281 552 316 560 356 560 422 560 476 533 518 481 559 428 580 359 580 273 580 187 559 117 518 65 476 13 422-13 356-13 316-13 281-5 252 10 223 25 199 49 181 82ZM487 273C487 339 473 390 446 428 418 466 381 485 334 485 286 485 249 466 222 428 194 390 181 339 181 273 181 207 194 155 222 117 249 79 286 61 334 61 381 61 418 79 446 117 473 155 487 207 487 273Z"/>
<text fill-opacity="0" xml:space="preserve" transform="matrix(1 0 -0 1 317.46095 269.7075)" font-size="14" font-family="DejaVuSans"><tspan y="0" x="92.895008">p</tspan></text>
<path transform="matrix(.014,0,0,-.014,419.24595,269.7075)" d="M85 216V547H175V219C175 167 185 129 205 103 225 77 255 64 296 64 344 64 383 79 411 110 439 141 453 183 453 237V547H543V0H453V84C431 50 405 26 377 10 348-5 315-13 277-13 214-13 166 6 134 45 101 83 85 140 85 216ZM311 560V560Z"/>
<text fill-opacity="0" xml:space="preserve" transform="matrix(1 0 -0 1 317.46095 269.7075)" font-size="14" font-family="DejaVuSans"><tspan y="0" x="101.785">u</tspan></text>
<path transform="matrix(.014,0,0,-.014,428.12196,269.7075)" d="M183 702V547H368V477H183V180C183 135 189 106 201 94 213 81 238 75 276 75H368V0H276C206 0 158 13 132 39 106 65 93 112 93 180V477H27V547H93V702H183Z"/>
<text fill-opacity="0" xml:space="preserve" transform="matrix(1 0 -0 1 317.46095 269.7075)" font-size="14" font-family="DejaVuSans"><tspan y="0" x="110.661">t</tspan></text>
<path transform="matrix(.014,0,0,-.014,433.60993,269.7075)" d="M343 275C270 275 220 266 192 250 164 233 150 205 150 165 150 133 160 107 181 89 202 70 231 61 267 61 317 61 357 78 387 114 417 149 432 196 432 255V275H343ZM522 312V0H432V83C411 49 385 25 355 10 325-5 287-13 243-13 187-13 142 2 109 33 76 64 60 106 60 159 60 220 80 266 122 298 163 329 224 345 306 345H432V354C432 395 418 427 391 450 364 472 326 484 277 484 245 484 215 480 185 472 155 464 127 453 100 439V522C132 534 164 544 195 550 226 556 256 560 286 560 365 560 424 539 463 498 502 457 522 395 522 312Z"/>
<text fill-opacity="0" xml:space="preserve" transform="matrix(1 0 -0 1 317.46095 269.7075)" font-size="14" font-family="DejaVuSans"><tspan y="0" x="116.149">a</tspan></text>
<path transform="matrix(.014,0,0,-.014,442.19197,269.7075)" d="M183 702V547H368V477H183V180C183 135 189 106 201 94 213 81 238 75 276 75H368V0H276C206 0 158 13 132 39 106 65 93 112 93 180V477H27V547H93V702H183Z"/>
<text fill-opacity="0" xml:space="preserve" transform="matrix(1 0 -0 1 317.46095 269.7075)" font-size="14" font-family="DejaVuSans"><tspan y="0" x="124.731">t</tspan></text>
<path transform="matrix(.014,0,0,-.014,447.67994,269.7075)" d="M94 547H184V0H94V547ZM94 760H184V646H94V760Z"/>
<text fill-opacity="0" xml:space="preserve" transform="matrix(1 0 -0 1 317.46095 269.7075)" font-size="14" font-family="DejaVuSans"><tspan y="0" x="130.21901">i</tspan></text>
<path transform="matrix(.014,0,0,-.014,451.57197,269.7075)" d="M306 484C258 484 220 465 192 427 164 389 150 338 150 273 150 207 163 156 191 118 219 80 257 62 306 62 354 62 392 80 420 118 448 156 462 207 462 273 462 337 448 389 420 427 392 465 354 484 306 484ZM306 560C384 560 445 534 490 484 534 433 557 363 557 273 557 183 534 113 490 63 445 12 384-13 306-13 227-13 165 12 121 63 77 113 55 183 55 273 55 363 77 433 121 484 165 534 227 560 306 560Z"/>
<text fill-opacity="0" xml:space="preserve" transform="matrix(1 0 -0 1 317.46095 269.7075)" font-size="14" font-family="DejaVuSans"><tspan y="0" x="134.11101">o</tspan></text>
<path transform="matrix(.014,0,0,-.014,460.13996,269.7075)" d="M549 330V0H459V327C459 379 448 417 428 443 408 469 378 482 338 482 289 482 251 466 223 435 195 404 181 362 181 309V0H91V547H181V462C202 494 227 519 257 535 286 551 320 560 358 560 420 560 468 540 500 501 532 462 549 405 549 330Z"/>
<text fill-opacity="0" xml:space="preserve" transform="matrix(1 0 -0 1 317.46095 269.7075)" font-size="14" font-family="DejaVuSans"><tspan y="0" x="142.67902">n</tspan></text>
<path transform="matrix(.014,0,0,-.014,469.01597,269.7075)" d="M343 275C270 275 220 266 192 250 164 233 150 205 150 165 150 133 160 107 181 89 202 70 231 61 267 61 317 61 357 78 387 114 417 149 432 196 432 255V275H343ZM522 312V0H432V83C411 49 385 25 355 10 325-5 287-13 243-13 187-13 142 2 109 33 76 64 60 106 60 159 60 220 80 266 122 298 163 329 224 345 306 345H432V354C432 395 418 427 391 450 364 472 326 484 277 484 245 484 215 480 185 472 155 464 127 453 100 439V522C132 534 164 544 195 550 226 556 256 560 286 560 365 560 424 539 463 498 502 457 522 395 522 312Z"/>
<text fill-opacity="0" xml:space="preserve" transform="matrix(1 0 -0 1 317.46095 269.7075)" font-size="14" font-family="DejaVuSans"><tspan y="0" x="151.55503">a</tspan></text>
<path transform="matrix(.014,0,0,-.014,477.59797,269.7075)" d="M94 760H184V0H94V760Z"/>
<text fill-opacity="0" xml:space="preserve" transform="matrix(1 0 -0 1 317.46095 269.7075)" font-size="14" font-family="DejaVuSans"><tspan y="0" x="160.13703">l</tspan></text>
<path transform="matrix(.014,0,0,-.014,481.48997,269.7075)" d=""/>
<text fill-opacity="0" xml:space="preserve" transform="matrix(1 0 -0 1 317.46095 269.7075)" font-size="14" font-family="DejaVuSans"><tspan y="0" x="164.02902"> </tspan></text>
<path transform="matrix(.014,0,0,-.014,485.94197,269.7075)" d="M644 673V569C610 599 575 622 537 638 499 653 460 661 418 661 334 661 270 635 226 584 182 533 160 460 160 364 160 268 182 194 226 143 270 92 334 67 418 67 460 67 499 74 537 90 575 105 610 128 644 159V56C609 32 572 15 534 4 496-7 455-13 412-13 302-13 215 20 151 87 87 154 56 246 56 364 56 481 87 573 151 641 215 708 302 742 412 742 456 742 497 736 535 725 573 713 610 696 644 673Z"/>
<text fill-opacity="0" xml:space="preserve" transform="matrix(1 0 -0 1 317.46095 269.7075)" font-size="14" font-family="DejaVuSans"><tspan y="0" x="168.48102">C</tspan></text>
<path transform="matrix(.014,0,0,-.014,495.71397,269.7075)" d="M306 484C258 484 220 465 192 427 164 389 150 338 150 273 150 207 163 156 191 118 219 80 257 62 306 62 354 62 392 80 420 118 448 156 462 207 462 273 462 337 448 389 420 427 392 465 354 484 306 484ZM306 560C384 560 445 534 490 484 534 433 557 363 557 273 557 183 534 113 490 63 445 12 384-13 306-13 227-13 165 12 121 63 77 113 55 183 55 273 55 363 77 433 121 484 165 534 227 560 306 560Z"/>
<text fill-opacity="0" xml:space="preserve" transform="matrix(1 0 -0 1 317.46095 269.7075)" font-size="14" font-family="DejaVuSans"><tspan y="0" x="178.25302">o</tspan></text>
<path transform="matrix(.014,0,0,-.014,504.28196,269.7075)" d="M443 531V446C417 458 391 468 364 475 336 481 308 485 279 485 234 485 200 478 178 464 156 450 145 430 145 403 145 382 153 366 169 354 185 342 217 330 265 320L296 313C360 299 405 279 432 255 458 230 472 195 472 151 472 100 452 60 412 31 372 1 316-13 246-13 216-13 186-10 154-5 122 0 89 8 54 20V113C87 95 120 82 152 74 184 65 216 61 248 61 290 61 323 68 346 82 368 96 380 117 380 144 380 168 371 187 355 200 339 213 303 226 247 238L216 245C160 257 119 275 95 299 70 323 58 356 58 399 58 450 76 490 112 518 148 546 200 560 268 560 301 560 332 557 362 552 391 547 418 540 443 531Z"/>
<text fill-opacity="0" xml:space="preserve" transform="matrix(1 0 -0 1 317.46095 269.7075)" font-size="14" font-family="DejaVuSans"><tspan y="0" x="186.82102">s</tspan></text>
<path transform="matrix(.014,0,0,-.014,511.57597,269.7075)" d="M183 702V547H368V477H183V180C183 135 189 106 201 94 213 81 238 75 276 75H368V0H276C206 0 158 13 132 39 106 65 93 112 93 180V477H27V547H93V702H183Z"/>
<text fill-opacity="0" xml:space="preserve" transform="matrix(1 0 -0 1 317.46095 269.7075)" font-size="14" font-family="DejaVuSans"><tspan y="0" x="194.11502">t</tspan></text>
<g clip-path="url(#clip_6)">
<path transform="matrix(1,0,0,-1,0,288)" stroke-width=".8" stroke-linecap="butt" stroke-dasharray="2.96,1.28" stroke-linejoin="round" fill="none" stroke="#b0b0b0" stroke-opacity=".5" d="M57.62 262.20619H776.88"/>
</g>
<path transform="matrix(1,0,0,-1,0,288)" d="M57.62 262.20619H54.12"/>
<path transform="matrix(1,0,0,-1,0,288)" stroke-width=".8" stroke-linecap="butt" stroke-linejoin="round" fill="none" stroke="#000000" d="M57.62 262.20619H54.12"/>
<path transform="matrix(.014,0,0,-.014,41.71375,31.114136)" d="M124 83H285V639L110 604V694L284 729H383V83H544V0H124V83Z"/>
<text fill-opacity="0" xml:space="preserve" transform="matrix(1 0 -0 1 41.71375 31.114136)" font-size="14" font-family="DejaVuSans"><tspan y="0" x="0">1</tspan></text>
<g clip-path="url(#clip_7)">
<path transform="matrix(1,0,0,-1,0,288)" stroke-width=".8" stroke-linecap="butt" stroke-dasharray="2.96,1.28" stroke-linejoin="round" fill="none" stroke="#b0b0b0" stroke-opacity=".5" d="M57.62 216.68212H776.88"/>
</g>
<path transform="matrix(1,0,0,-1,0,288)" d="M57.62 216.68212H54.12"/>
<path transform="matrix(1,0,0,-1,0,288)" stroke-width=".8" stroke-linecap="butt" stroke-linejoin="round" fill="none" stroke="#000000" d="M57.62 216.68212H54.12"/>
<path transform="matrix(.014,0,0,-.014,41.71375,76.6382)" d="M192 83H536V0H73V83C110 121 161 173 226 239 290 304 331 346 348 365 380 400 402 430 414 455 426 479 433 504 433 528 433 566 419 598 392 622 365 646 330 659 286 659 255 659 222 653 188 643 154 632 117 616 78 594V694C118 710 155 722 189 730 223 738 255 742 284 742 359 742 419 723 464 685 509 647 532 597 532 534 532 504 526 475 515 449 504 422 484 390 454 354 446 344 420 317 376 272 332 227 271 164 192 83Z"/>
<text fill-opacity="0" xml:space="preserve" transform="matrix(1 0 -0 1 41.71375 76.6382)" font-size="14" font-family="DejaVuSans"><tspan y="0" x="0">2</tspan></text>
<g clip-path="url(#clip_8)">
<path transform="matrix(1,0,0,-1,0,288)" stroke-width=".8" stroke-linecap="butt" stroke-dasharray="2.96,1.28" stroke-linejoin="round" fill="none" stroke="#b0b0b0" stroke-opacity=".5" d="M57.62 171.15804H776.88"/>
</g>
<path transform="matrix(1,0,0,-1,0,288)" d="M57.62 171.15804H54.12"/>
<path transform="matrix(1,0,0,-1,0,288)" stroke-width=".8" stroke-linecap="butt" stroke-linejoin="round" fill="none" stroke="#000000" d="M57.62 171.15804H54.12"/>
<path transform="matrix(.014,0,0,-.014,41.71375,122.16228)" d="M378 643 129 254H378V643ZM352 729H476V254H580V172H476V0H378V172H49V267L352 729Z"/>
<text fill-opacity="0" xml:space="preserve" transform="matrix(1 0 -0 1 41.71375 122.16228)" font-size="14" font-family="DejaVuSans"><tspan y="0" x="0">4</tspan></text>
<g clip-path="url(#clip_9)">
<path transform="matrix(1,0,0,-1,0,288)" stroke-width=".8" stroke-linecap="butt" stroke-dasharray="2.96,1.28" stroke-linejoin="round" fill="none" stroke="#b0b0b0" stroke-opacity=".5" d="M57.62 125.63396H776.88"/>
</g>
<path transform="matrix(1,0,0,-1,0,288)" d="M57.62 125.63396H54.12"/>
<path transform="matrix(1,0,0,-1,0,288)" stroke-width=".8" stroke-linecap="butt" stroke-linejoin="round" fill="none" stroke="#000000" d="M57.62 125.63396H54.12"/>
<path transform="matrix(.014,0,0,-.014,41.71375,167.68636)" d="M318 346C271 346 234 333 207 308 180 283 167 249 167 205 167 161 180 126 207 101 234 76 271 64 318 64 364 64 401 76 428 102 455 127 469 161 469 205 469 249 455 283 429 308 402 333 365 346 318 346ZM219 388C177 398 144 418 120 447 96 476 85 511 85 553 85 611 105 657 147 691 188 725 245 742 318 742 390 742 447 725 489 691 530 657 551 611 551 553 551 511 539 476 515 447 491 418 459 398 417 388 464 377 501 355 528 323 554 291 568 251 568 205 568 134 546 80 503 43 459 5 397-13 317-13 237-13 175 5 132 43 89 80 68 134 68 205 68 251 81 291 108 323 134 355 171 377 219 388ZM183 544C183 506 194 476 218 455 242 434 275 424 318 424 360 424 393 434 417 455 441 476 453 506 453 544 453 582 441 611 417 632 393 653 360 664 318 664 275 664 242 653 218 632 194 611 183 582 183 544Z"/>
<text fill-opacity="0" xml:space="preserve" transform="matrix(1 0 -0 1 41.71375 167.68636)" font-size="14" font-family="DejaVuSans"><tspan y="0" x="0">8</tspan></text>
<g clip-path="url(#clip_10)">
<path transform="matrix(1,0,0,-1,0,288)" stroke-width=".8" stroke-linecap="butt" stroke-dasharray="2.96,1.28" stroke-linejoin="round" fill="none" stroke="#b0b0b0" stroke-opacity=".5" d="M57.62 80.10988H776.88"/>
</g>
<path transform="matrix(1,0,0,-1,0,288)" d="M57.62 80.10988H54.12"/>
<path transform="matrix(1,0,0,-1,0,288)" stroke-width=".8" stroke-linecap="butt" stroke-linejoin="round" fill="none" stroke="#000000" d="M57.62 80.10988H54.12"/>
<path transform="matrix(.014,0,0,-.014,32.8075,213.21044)" d="M124 83H285V639L110 604V694L284 729H383V83H544V0H124V83Z"/>
<text fill-opacity="0" xml:space="preserve" transform="matrix(1 0 -0 1 32.8075 213.21044)" font-size="14" font-family="DejaVuSans"><tspan y="0" x="0">1</tspan></text>
<path transform="matrix(.014,0,0,-.014,41.7115,213.21044)" d="M330 404C286 404 251 388 225 358 199 328 186 286 186 234 186 181 199 139 225 109 251 79 286 64 330 64 374 64 409 79 435 109 461 139 474 181 474 234 474 286 461 328 435 358 409 388 374 404 330 404ZM526 713V623C501 635 476 644 451 650 425 656 400 659 376 659 310 659 260 637 226 593 192 549 172 482 168 394 187 422 211 444 240 459 269 474 301 482 336 482 409 482 467 459 509 415 551 371 573 310 573 234 573 159 550 99 506 54 462 9 403-13 330-13 246-13 181 19 137 83 92 147 70 241 70 364 70 479 97 571 152 639 206 707 280 742 372 742 396 742 421 739 447 735 472 730 498 723 526 713Z"/>
<text fill-opacity="0" xml:space="preserve" transform="matrix(1 0 -0 1 32.8075 213.21044)" font-size="14" font-family="DejaVuSans"><tspan y="0" x="8.904">6</tspan></text>
<path transform="matrix(0,-.014,-.014,-0,25.90125,172.35126)" d="M444 342C465 334 486 319 506 296 526 272 546 240 566 199L666 0H560L467 187C443 235 419 268 397 284 374 300 343 308 304 308H197V0H98V729H321C404 729 466 711 507 677 548 642 569 589 569 519 569 473 558 434 537 404 515 374 484 353 444 342ZM197 648V389H321C368 389 404 400 428 422 452 444 465 476 465 519 465 561 452 593 428 615 404 637 368 648 321 648H197Z"/>
<text fill-opacity="0" xml:space="preserve" transform="matrix(0 -1 1 0 25.90125 172.35126)" font-size="14" font-family="DejaVuSans"><tspan y="0" x="0">R</tspan></text>
<path transform="matrix(0,-.014,-.014,-0,25.90125,163.24626)" d="M562 296V252H149C153 190 171 142 205 110 238 78 284 62 344 62 378 62 412 66 444 74 476 82 509 95 541 113V28C509 14 476 3 442-3 408-9 373-13 339-13 251-13 182 12 131 62 80 112 55 181 55 268 55 357 79 428 127 481 175 533 241 560 323 560 397 560 455 536 498 489 540 441 562 377 562 296ZM472 322C471 371 457 410 431 440 404 469 368 484 324 484 274 484 234 469 204 441 174 413 156 373 152 322H472Z"/>
<text fill-opacity="0" xml:space="preserve" transform="matrix(0 -1 1 0 25.90125 172.35126)" font-size="14" font-family="DejaVuSans"><tspan y="0" x="9.1050009">e</tspan></text>
<path transform="matrix(0,-.014,-.014,-0,25.90125,154.63626)" d="M94 760H184V0H94V760Z"/>
<text fill-opacity="0" xml:space="preserve" transform="matrix(0 -1 1 0 25.90125 172.35126)" font-size="14" font-family="DejaVuSans"><tspan y="0" x="17.715">l</tspan></text>
<path transform="matrix(0,-.014,-.014,-0,25.90125,150.74427)" d="M343 275C270 275 220 266 192 250 164 233 150 205 150 165 150 133 160 107 181 89 202 70 231 61 267 61 317 61 357 78 387 114 417 149 432 196 432 255V275H343ZM522 312V0H432V83C411 49 385 25 355 10 325-5 287-13 243-13 187-13 142 2 109 33 76 64 60 106 60 159 60 220 80 266 122 298 163 329 224 345 306 345H432V354C432 395 418 427 391 450 364 472 326 484 277 484 245 484 215 480 185 472 155 464 127 453 100 439V522C132 534 164 544 195 550 226 556 256 560 286 560 365 560 424 539 463 498 502 457 522 395 522 312Z"/>
<text fill-opacity="0" xml:space="preserve" transform="matrix(0 -1 1 0 25.90125 172.35126)" font-size="14" font-family="DejaVuSans"><tspan y="0" x="21.607">a</tspan></text>
<path transform="matrix(0,-.014,-.014,-0,25.90125,142.16226)" d="M183 702V547H368V477H183V180C183 135 189 106 201 94 213 81 238 75 276 75H368V0H276C206 0 158 13 132 39 106 65 93 112 93 180V477H27V547H93V702H183Z"/>
<text fill-opacity="0" xml:space="preserve" transform="matrix(0 -1 1 0 25.90125 172.35126)" font-size="14" font-family="DejaVuSans"><tspan y="0" x="30.189002">t</tspan></text>
<path transform="matrix(0,-.014,-.014,-0,25.90125,136.67426)" d="M94 547H184V0H94V547ZM94 760H184V646H94V760Z"/>
<text fill-opacity="0" xml:space="preserve" transform="matrix(0 -1 1 0 25.90125 172.35126)" font-size="14" font-family="DejaVuSans"><tspan y="0" x="35.677003">i</tspan></text>
<path transform="matrix(0,-.014,-.014,-0,25.90125,132.78226)" d="M30 547H125L296 88 467 547H562L357 0H235L30 547Z"/>
<text fill-opacity="0" xml:space="preserve" transform="matrix(0 -1 1 0 25.90125 172.35126)" font-size="14" font-family="DejaVuSans"><tspan y="0" x="39.569005">v</tspan></text>
<path transform="matrix(0,-.014,-.014,-0,25.90125,124.494258)" d="M562 296V252H149C153 190 171 142 205 110 238 78 284 62 344 62 378 62 412 66 444 74 476 82 509 95 541 113V28C509 14 476 3 442-3 408-9 373-13 339-13 251-13 182 12 131 62 80 112 55 181 55 268 55 357 79 428 127 481 175 533 241 560 323 560 397 560 455 536 498 489 540 441 562 377 562 296ZM472 322C471 371 457 410 431 440 404 469 368 484 324 484 274 484 234 469 204 441 174 413 156 373 152 322H472Z"/>
<text fill-opacity="0" xml:space="preserve" transform="matrix(0 -1 1 0 25.90125 172.35126)" font-size="14" font-family="DejaVuSans"><tspan y="0" x="47.857004">e</tspan></text>
<path transform="matrix(0,-.014,-.014,-0,25.90125,115.884258)" d=""/>
<text fill-opacity="0" xml:space="preserve" transform="matrix(0 -1 1 0 25.90125 172.35126)" font-size="14" font-family="DejaVuSans"><tspan y="0" x="56.467004"> </tspan></text>
<path transform="matrix(0,-.014,-.014,-0,25.90125,111.43225)" d="M98 729H559V646H197V430H544V347H197V83H568V0H98V729Z"/>
<text fill-opacity="0" xml:space="preserve" transform="matrix(0 -1 1 0 25.90125 172.35126)" font-size="14" font-family="DejaVuSans"><tspan y="0" x="60.919004">E</tspan></text>
<path transform="matrix(0,-.014,-.014,-0,25.90125,102.58425)" d="M411 463C401 469 390 473 378 476 366 478 353 480 339 480 288 480 249 463 222 430 194 397 181 350 181 288V0H91V547H181V462C199 495 224 520 254 536 284 552 321 560 365 560 371 560 378 559 386 559 393 558 401 557 411 555V463Z"/>
<text fill-opacity="0" xml:space="preserve" transform="matrix(0 -1 1 0 25.90125 172.35126)" font-size="14" font-family="DejaVuSans"><tspan y="0" x="69.767009">r</tspan></text>
<path transform="matrix(0,-.014,-.014,-0,25.90125,97.06463)" d="M411 463C401 469 390 473 378 476 366 478 353 480 339 480 288 480 249 463 222 430 194 397 181 350 181 288V0H91V547H181V462C199 495 224 520 254 536 284 552 321 560 365 560 371 560 378 559 386 559 393 558 401 557 411 555V463Z"/>
<text fill-opacity="0" xml:space="preserve" transform="matrix(0 -1 1 0 25.90125 172.35126)" font-size="14" font-family="DejaVuSans"><tspan y="0" x="75.28663">r</tspan></text>
<path transform="matrix(0,-.014,-.014,-0,25.90125,91.607509)" d="M306 484C258 484 220 465 192 427 164 389 150 338 150 273 150 207 163 156 191 118 219 80 257 62 306 62 354 62 392 80 420 118 448 156 462 207 462 273 462 337 448 389 420 427 392 465 354 484 306 484ZM306 560C384 560 445 534 490 484 534 433 557 363 557 273 557 183 534 113 490 63 445 12 384-13 306-13 227-13 165 12 121 63 77 113 55 183 55 273 55 363 77 433 121 484 165 534 227 560 306 560Z"/>
<text fill-opacity="0" xml:space="preserve" transform="matrix(0 -1 1 0 25.90125 172.35126)" font-size="14" font-family="DejaVuSans"><tspan y="0" x="80.74375">o</tspan></text>
<path transform="matrix(0,-.014,-.014,-0,25.90125,83.039508)" d="M411 463C401 469 390 473 378 476 366 478 353 480 339 480 288 480 249 463 222 430 194 397 181 350 181 288V0H91V547H181V462C199 495 224 520 254 536 284 552 321 560 365 560 371 560 378 559 386 559 393 558 401 557 411 555V463Z"/>
<text fill-opacity="0" xml:space="preserve" transform="matrix(0 -1 1 0 25.90125 172.35126)" font-size="14" font-family="DejaVuSans"><tspan y="0" x="89.31175">r</tspan></text>
<g clip-path="url(#clip_11)">
<path transform="matrix(1,0,0,-1,0,288)" stroke-width="1.5" stroke-linecap="butt" stroke-linejoin="round" fill="none" stroke="#000000" d="M766.875 214.52857V214.52857"/>
<path transform="matrix(1,0,0,-1,0,288)" stroke-width="1.5" stroke-linecap="butt" stroke-linejoin="round" fill="none" stroke="#000000" d="M268.98368 190.09709V181.67189"/>
<path transform="matrix(1,0,0,-1,0,288)" stroke-width="1.5" stroke-linecap="butt" stroke-linejoin="round" fill="none" stroke="#000000" d="M154.25049 72.280048V72.09533"/>
<path transform="matrix(1,0,0,-1,0,288)" stroke-width="1.5" stroke-linecap="butt" stroke-linejoin="round" fill="none" stroke="#000000" d="M135.81089 96.04674V95.18128"/>
<path transform="matrix(1,0,0,-1,0,288)" stroke-width="1.5" stroke-linecap="butt" stroke-linejoin="round" fill="none" stroke="#000000" d="M130.09258 87.83962V79.63376"/>
<path transform="matrix(1,0,0,-1,0,288)" stroke-width="1.5" stroke-linecap="butt" stroke-linejoin="round" fill="none" stroke="#000000" d="M150.42331 115.544628V112.727458"/>
<path transform="matrix(1,0,0,-1,0,288)" stroke-width="1.5" stroke-linecap="butt" stroke-linejoin="round" fill="none" stroke="#000000" d="M248.39806 128.24735V121.74026"/>
<path transform="matrix(1,0,0,-1,0,288)" stroke-width="1.5" stroke-linecap="butt" stroke-linejoin="round" fill="none" stroke="#000000" d="M161.52495 129.54424V125.92226"/>
</g>
<g clip-path="url(#clip_12)">
<g clip-path="url(#clip_13)">
<path transform="matrix(1,0,0,-1,766.875,73.471439)" d="M3 0H-3"/>
<path transform="matrix(1,0,0,-1,766.875,73.471439)" stroke-width="1.5" stroke-linecap="butt" stroke-linejoin="round" fill="none" stroke="#000000" d="M3 0H-3"/>
</g>
<g clip-path="url(#clip_14)">
<path transform="matrix(1,0,0,-1,268.98365,97.90291)" d="M3 0H-3"/>
<path transform="matrix(1,0,0,-1,268.98365,97.90291)" stroke-width="1.5" stroke-linecap="butt" stroke-linejoin="round" fill="none" stroke="#000000" d="M3 0H-3"/>
</g>
<g clip-path="url(#clip_15)">
<path transform="matrix(1,0,0,-1,154.25048,215.71996)" d="M3 0H-3"/>
<path transform="matrix(1,0,0,-1,154.25048,215.71996)" stroke-width="1.5" stroke-linecap="butt" stroke-linejoin="round" fill="none" stroke="#000000" d="M3 0H-3"/>
</g>
<g clip-path="url(#clip_16)">
<path transform="matrix(1,0,0,-1,135.81087,191.95326)" d="M3 0H-3"/>
<path transform="matrix(1,0,0,-1,135.81087,191.95326)" stroke-width="1.5" stroke-linecap="butt" stroke-linejoin="round" fill="none" stroke="#000000" d="M3 0H-3"/>
</g>
<g clip-path="url(#clip_17)">
<path transform="matrix(1,0,0,-1,130.09256,200.16037)" d="M3 0H-3"/>
<path transform="matrix(1,0,0,-1,130.09256,200.16037)" stroke-width="1.5" stroke-linecap="butt" stroke-linejoin="round" fill="none" stroke="#000000" d="M3 0H-3"/>
</g>
<g clip-path="url(#clip_18)">
<path transform="matrix(1,0,0,-1,150.42328,172.45539)" d="M3 0H-3"/>
<path transform="matrix(1,0,0,-1,150.42328,172.45539)" stroke-width="1.5" stroke-linecap="butt" stroke-linejoin="round" fill="none" stroke="#000000" d="M3 0H-3"/>
</g>
<g clip-path="url(#clip_19)">
<path transform="matrix(1,0,0,-1,248.39804,159.75267)" d="M3 0H-3"/>
<path transform="matrix(1,0,0,-1,248.39804,159.75267)" stroke-width="1.5" stroke-linecap="butt" stroke-linejoin="round" fill="none" stroke="#000000" d="M3 0H-3"/>
</g>
<g clip-path="url(#clip_20)">
<path transform="matrix(1,0,0,-1,161.52494,158.45578)" d="M3 0H-3"/>
<path transform="matrix(1,0,0,-1,161.52494,158.45578)" stroke-width="1.5" stroke-linecap="butt" stroke-linejoin="round" fill="none" stroke="#000000" d="M3 0H-3"/>
</g>
</g>
<g clip-path="url(#clip_21)">
<g clip-path="url(#clip_22)">
<path transform="matrix(1,0,0,-1,766.875,73.471439)" d="M3 0H-3"/>
<path transform="matrix(1,0,0,-1,766.875,73.471439)" stroke-width="1.5" stroke-linecap="butt" stroke-linejoin="round" fill="none" stroke="#000000" d="M3 0H-3"/>
</g>
<g clip-path="url(#clip_23)">
<path transform="matrix(1,0,0,-1,268.98365,106.3281)" d="M3 0H-3"/>
<path transform="matrix(1,0,0,-1,268.98365,106.3281)" stroke-width="1.5" stroke-linecap="butt" stroke-linejoin="round" fill="none" stroke="#000000" d="M3 0H-3"/>
</g>
<g clip-path="url(#clip_24)">
<path transform="matrix(1,0,0,-1,154.25048,215.90467)" d="M3 0H-3"/>
<path transform="matrix(1,0,0,-1,154.25048,215.90467)" stroke-width="1.5" stroke-linecap="butt" stroke-linejoin="round" fill="none" stroke="#000000" d="M3 0H-3"/>
</g>
<g clip-path="url(#clip_25)">
<path transform="matrix(1,0,0,-1,135.81087,192.81871)" d="M3 0H-3"/>
<path transform="matrix(1,0,0,-1,135.81087,192.81871)" stroke-width="1.5" stroke-linecap="butt" stroke-linejoin="round" fill="none" stroke="#000000" d="M3 0H-3"/>
</g>
<g clip-path="url(#clip_26)">
<path transform="matrix(1,0,0,-1,130.09256,208.36623)" d="M3 0H-3"/>
<path transform="matrix(1,0,0,-1,130.09256,208.36623)" stroke-width="1.5" stroke-linecap="butt" stroke-linejoin="round" fill="none" stroke="#000000" d="M3 0H-3"/>
</g>
<g clip-path="url(#clip_27)">
<path transform="matrix(1,0,0,-1,150.42328,175.27252)" d="M3 0H-3"/>
<path transform="matrix(1,0,0,-1,150.42328,175.27252)" stroke-width="1.5" stroke-linecap="butt" stroke-linejoin="round" fill="none" stroke="#000000" d="M3 0H-3"/>
</g>
<g clip-path="url(#clip_28)">
<path transform="matrix(1,0,0,-1,248.39804,166.25972)" d="M3 0H-3"/>
<path transform="matrix(1,0,0,-1,248.39804,166.25972)" stroke-width="1.5" stroke-linecap="butt" stroke-linejoin="round" fill="none" stroke="#000000" d="M3 0H-3"/>
</g>
<g clip-path="url(#clip_29)">
<path transform="matrix(1,0,0,-1,161.52494,162.07773)" d="M3 0H-3"/>
<path transform="matrix(1,0,0,-1,161.52494,162.07773)" stroke-width="1.5" stroke-linecap="butt" stroke-linejoin="round" fill="none" stroke="#000000" d="M3 0H-3"/>
</g>
</g>
<g clip-path="url(#clip_30)">
<path transform="matrix(1,0,0,-1,0,288)" d="M78.48658 259.20619C79.28219 259.20619 80.04532 259.52229 80.6079 260.08488 81.17049 260.64747 81.48658 261.41059 81.48658 262.20619 81.48658 263.0018 81.17049 263.76493 80.6079 264.3275 80.04532 264.89009 79.28219 265.20619 78.48658 265.20619 77.69097 265.20619 76.92784 264.89009 76.365268 264.3275 75.80268 263.76493 75.48658 263.0018 75.48658 262.20619 75.48658 261.41059 75.80268 260.64747 76.365268 260.08488 76.92784 259.52229 77.69097 259.20619 78.48658 259.20619Z" fill="#ff0000"/>
<path transform="matrix(1,0,0,-1,0,288)" stroke-width="1" stroke-linecap="butt" stroke-linejoin="round" fill="none" stroke="#ff0000" d="M78.48658 259.20619C79.28219 259.20619 80.04532 259.52229 80.6079 260.08488 81.17049 260.64747 81.48658 261.41059 81.48658 262.20619 81.48658 263.0018 81.17049 263.76493 80.6079 264.3275 80.04532 264.89009 79.28219 265.20619 78.48658 265.20619 77.69097 265.20619 76.92784 264.89009 76.365268 264.3275 75.80268 263.76493 75.48658 263.0018 75.48658 262.20619 75.48658 261.41059 75.80268 260.64747 76.365268 260.08488 76.92784 259.52229 77.69097 259.20619 78.48658 259.20619Z"/>
</g>
<g clip-path="url(#clip_31)">
<g clip-path="url(#clip_32)">
<path transform="matrix(1,0,0,-1,766.875,73.471439)" d="M0-3C.795609-3 1.55874-2.683901 2.12132-2.12132 2.683901-1.55874 3-.795609 3 0 3 .795609 2.683901 1.55874 2.12132 2.12132 1.55874 2.683901 .795609 3 0 3-.795609 3-1.55874 2.683901-2.12132 2.12132-2.683901 1.55874-3 .795609-3 0-3-.795609-2.683901-1.55874-2.12132-2.12132-1.55874-2.683901-.795609-3 0-3Z"/>
<path transform="matrix(1,0,0,-1,766.875,73.471439)" stroke-width="1" stroke-linecap="butt" stroke-linejoin="round" fill="none" stroke="#000000" d="M0-3C.795609-3 1.55874-2.683901 2.12132-2.12132 2.683901-1.55874 3-.795609 3 0 3 .795609 2.683901 1.55874 2.12132 2.12132 1.55874 2.683901 .795609 3 0 3-.795609 3-1.55874 2.683901-2.12132 2.12132-2.683901 1.55874-3 .795609-3 0-3-.795609-2.683901-1.55874-2.12132-2.12132-1.55874-2.683901-.795609-3 0-3Z"/>
</g>
<g clip-path="url(#clip_33)">
<path transform="matrix(1,0,0,-1,268.98365,102.25051)" d="M0-3C.795609-3 1.55874-2.683901 2.12132-2.12132 2.683901-1.55874 3-.795609 3 0 3 .795609 2.683901 1.55874 2.12132 2.12132 1.55874 2.683901 .795609 3 0 3-.795609 3-1.55874 2.683901-2.12132 2.12132-2.683901 1.55874-3 .795609-3 0-3-.795609-2.683901-1.55874-2.12132-2.12132-1.55874-2.683901-.795609-3 0-3Z"/>
<path transform="matrix(1,0,0,-1,268.98365,102.25051)" stroke-width="1" stroke-linecap="butt" stroke-linejoin="round" fill="none" stroke="#000000" d="M0-3C.795609-3 1.55874-2.683901 2.12132-2.12132 2.683901-1.55874 3-.795609 3 0 3 .795609 2.683901 1.55874 2.12132 2.12132 1.55874 2.683901 .795609 3 0 3-.795609 3-1.55874 2.683901-2.12132 2.12132-2.683901 1.55874-3 .795609-3 0-3-.795609-2.683901-1.55874-2.12132-2.12132-1.55874-2.683901-.795609-3 0-3Z"/>
</g>
<g clip-path="url(#clip_34)">
<path transform="matrix(1,0,0,-1,154.25048,215.81238)" d="M0-3C.795609-3 1.55874-2.683901 2.12132-2.12132 2.683901-1.55874 3-.795609 3 0 3 .795609 2.683901 1.55874 2.12132 2.12132 1.55874 2.683901 .795609 3 0 3-.795609 3-1.55874 2.683901-2.12132 2.12132-2.683901 1.55874-3 .795609-3 0-3-.795609-2.683901-1.55874-2.12132-2.12132-1.55874-2.683901-.795609-3 0-3Z"/>
<path transform="matrix(1,0,0,-1,154.25048,215.81238)" stroke-width="1" stroke-linecap="butt" stroke-linejoin="round" fill="none" stroke="#000000" d="M0-3C.795609-3 1.55874-2.683901 2.12132-2.12132 2.683901-1.55874 3-.795609 3 0 3 .795609 2.683901 1.55874 2.12132 2.12132 1.55874 2.683901 .795609 3 0 3-.795609 3-1.55874 2.683901-2.12132 2.12132-2.683901 1.55874-3 .795609-3 0-3-.795609-2.683901-1.55874-2.12132-2.12132-1.55874-2.683901-.795609-3 0-3Z"/>
</g>
<g clip-path="url(#clip_35)">
<path transform="matrix(1,0,0,-1,135.81087,192.38742)" d="M0-3C.795609-3 1.55874-2.683901 2.12132-2.12132 2.683901-1.55874 3-.795609 3 0 3 .795609 2.683901 1.55874 2.12132 2.12132 1.55874 2.683901 .795609 3 0 3-.795609 3-1.55874 2.683901-2.12132 2.12132-2.683901 1.55874-3 .795609-3 0-3-.795609-2.683901-1.55874-2.12132-2.12132-1.55874-2.683901-.795609-3 0-3Z"/>
<path transform="matrix(1,0,0,-1,135.81087,192.38742)" stroke-width="1" stroke-linecap="butt" stroke-linejoin="round" fill="none" stroke="#000000" d="M0-3C.795609-3 1.55874-2.683901 2.12132-2.12132 2.683901-1.55874 3-.795609 3 0 3 .795609 2.683901 1.55874 2.12132 2.12132 1.55874 2.683901 .795609 3 0 3-.795609 3-1.55874 2.683901-2.12132 2.12132-2.683901 1.55874-3 .795609-3 0-3-.795609-2.683901-1.55874-2.12132-2.12132-1.55874-2.683901-.795609-3 0-3Z"/>
</g>
<g clip-path="url(#clip_36)">
<path transform="matrix(1,0,0,-1,130.09256,204.39139)" d="M0-3C.795609-3 1.55874-2.683901 2.12132-2.12132 2.683901-1.55874 3-.795609 3 0 3 .795609 2.683901 1.55874 2.12132 2.12132 1.55874 2.683901 .795609 3 0 3-.795609 3-1.55874 2.683901-2.12132 2.12132-2.683901 1.55874-3 .795609-3 0-3-.795609-2.683901-1.55874-2.12132-2.12132-1.55874-2.683901-.795609-3 0-3Z"/>
<path transform="matrix(1,0,0,-1,130.09256,204.39139)" stroke-width="1" stroke-linecap="butt" stroke-linejoin="round" fill="none" stroke="#000000" d="M0-3C.795609-3 1.55874-2.683901 2.12132-2.12132 2.683901-1.55874 3-.795609 3 0 3 .795609 2.683901 1.55874 2.12132 2.12132 1.55874 2.683901 .795609 3 0 3-.795609 3-1.55874 2.683901-2.12132 2.12132-2.683901 1.55874-3 .795609-3 0-3-.795609-2.683901-1.55874-2.12132-2.12132-1.55874-2.683901-.795609-3 0-3Z"/>
</g>
<g clip-path="url(#clip_37)">
<path transform="matrix(1,0,0,-1,150.42328,173.87908)" d="M0-3C.795609-3 1.55874-2.683901 2.12132-2.12132 2.683901-1.55874 3-.795609 3 0 3 .795609 2.683901 1.55874 2.12132 2.12132 1.55874 2.683901 .795609 3 0 3-.795609 3-1.55874 2.683901-2.12132 2.12132-2.683901 1.55874-3 .795609-3 0-3-.795609-2.683901-1.55874-2.12132-2.12132-1.55874-2.683901-.795609-3 0-3Z"/>
<path transform="matrix(1,0,0,-1,150.42328,173.87908)" stroke-width="1" stroke-linecap="butt" stroke-linejoin="round" fill="none" stroke="#000000" d="M0-3C.795609-3 1.55874-2.683901 2.12132-2.12132 2.683901-1.55874 3-.795609 3 0 3 .795609 2.683901 1.55874 2.12132 2.12132 1.55874 2.683901 .795609 3 0 3-.795609 3-1.55874 2.683901-2.12132 2.12132-2.683901 1.55874-3 .795609-3 0-3-.795609-2.683901-1.55874-2.12132-2.12132-1.55874-2.683901-.795609-3 0-3Z"/>
</g>
<g clip-path="url(#clip_38)">
<path transform="matrix(1,0,0,-1,248.39804,163.08676)" d="M0-3C.795609-3 1.55874-2.683901 2.12132-2.12132 2.683901-1.55874 3-.795609 3 0 3 .795609 2.683901 1.55874 2.12132 2.12132 1.55874 2.683901 .795609 3 0 3-.795609 3-1.55874 2.683901-2.12132 2.12132-2.683901 1.55874-3 .795609-3 0-3-.795609-2.683901-1.55874-2.12132-2.12132-1.55874-2.683901-.795609-3 0-3Z"/>
<path transform="matrix(1,0,0,-1,248.39804,163.08676)" stroke-width="1" stroke-linecap="butt" stroke-linejoin="round" fill="none" stroke="#000000" d="M0-3C.795609-3 1.55874-2.683901 2.12132-2.12132 2.683901-1.55874 3-.795609 3 0 3 .795609 2.683901 1.55874 2.12132 2.12132 1.55874 2.683901 .795609 3 0 3-.795609 3-1.55874 2.683901-2.12132 2.12132-2.683901 1.55874-3 .795609-3 0-3-.795609-2.683901-1.55874-2.12132-2.12132-1.55874-2.683901-.795609-3 0-3Z"/>
</g>
<g clip-path="url(#clip_39)">
<path transform="matrix(1,0,0,-1,161.52494,160.29174)" d="M0-3C.795609-3 1.55874-2.683901 2.12132-2.12132 2.683901-1.55874 3-.795609 3 0 3 .795609 2.683901 1.55874 2.12132 2.12132 1.55874 2.683901 .795609 3 0 3-.795609 3-1.55874 2.683901-2.12132 2.12132-2.683901 1.55874-3 .795609-3 0-3-.795609-2.683901-1.55874-2.12132-2.12132-1.55874-2.683901-.795609-3 0-3Z"/>
<path transform="matrix(1,0,0,-1,161.52494,160.29174)" stroke-width="1" stroke-linecap="butt" stroke-linejoin="round" fill="none" stroke="#000000" d="M0-3C.795609-3 1.55874-2.683901 2.12132-2.12132 2.683901-1.55874 3-.795609 3 0 3 .795609 2.683901 1.55874 2.12132 2.12132 1.55874 2.683901 .795609 3 0 3-.795609 3-1.55874 2.683901-2.12132 2.12132-2.683901 1.55874-3 .795609-3 0-3-.795609-2.683901-1.55874-2.12132-2.12132-1.55874-2.683901-.795609-3 0-3Z"/>
</g>
</g>
<path transform="matrix(1,0,0,-1,0,288)" stroke-width=".8" stroke-linecap="square" stroke-miterlimit="10" stroke-linejoin="miter" fill="none" stroke="#000000" d="M57.62 53.48V272.88"/>
<path transform="matrix(1,0,0,-1,0,288)" stroke-width=".8" stroke-linecap="square" stroke-miterlimit="10" stroke-linejoin="miter" fill="none" stroke="#000000" d="M776.88 53.48V272.88"/>
<path transform="matrix(1,0,0,-1,0,288)" stroke-width=".8" stroke-linecap="square" stroke-miterlimit="10" stroke-linejoin="miter" fill="none" stroke="#000000" d="M57.62 53.48H776.88"/>
<path transform="matrix(1,0,0,-1,0,288)" stroke-width=".8" stroke-linecap="square" stroke-miterlimit="10" stroke-linejoin="miter" fill="none" stroke="#000000" d="M57.62 272.88H776.88"/>
<path transform="matrix(.0125,0,0,-.0125,729.97256,77.05737)" d="M98 729H197V51C197-36 180-99 147-139 113-179 60-199-13-199H-51V-116H-20C22-116 53-103 71-79 89-55 98-11 98 51V729Z"/>
<text fill-opacity="0" xml:space="preserve" transform="matrix(1 0 -0 1 729.97256 77.05737)" font-size="12.5" font-family="DejaVuSans"><tspan y="0" x="0">J</tspan></text>
<path transform="matrix(.0125,0,0,-.0125,733.66006,77.05737)" d="M-2 729H614V646H355V0H256V646H-2V729Z"/>
<text fill-opacity="0" xml:space="preserve" transform="matrix(1 0 -0 1 729.97256 77.05737)" font-size="12.5" font-family="DejaVuSans"><tspan y="0" x="3.6875003">T</tspan></text>
<path transform="matrix(.0125,0,0,-.0125,741.29757,77.05737)" d="M98 729H517V646H197V431H486V348H197V0H98V729Z"/>
<text fill-opacity="0" xml:space="preserve" transform="matrix(1 0 -0 1 729.97256 77.05737)" font-size="12.5" font-family="DejaVuSans"><tspan y="0" x="11.325">F</tspan></text>
<path transform="matrix(.0125,0,0,-.0125,748.2663,77.05737)" d="M535 705V609C497 627 462 640 429 649 395 657 363 662 333 662 279 662 237 651 208 631 179 610 165 580 165 542 165 510 174 485 194 469 213 452 250 439 304 429L364 417C437 403 491 378 526 343 561 307 579 260 579 201 579 130 555 77 508 41 460 5 391-13 300-13 265-13 228-9 189-2 150 5 110 16 69 32V134C109 111 148 94 186 83 224 71 262 66 300 66 356 66 399 77 430 99 460 121 476 152 476 194 476 230 465 258 443 278 421 298 385 313 335 323L275 335C201 349 148 372 115 404 82 435 66 478 66 534 66 598 88 649 134 686 179 723 242 742 322 742 356 742 390 739 426 733 461 727 497 717 535 705Z"/>
<text fill-opacity="0" xml:space="preserve" transform="matrix(1 0 -0 1 729.97256 77.05737)" font-size="12.5" font-family="DejaVuSans"><tspan y="0" x="18.29375">S</tspan></text>
<path transform="matrix(.014,0,0,-.014,278.6465,106.11771)" d="M535 705V609C497 627 462 640 429 649 395 657 363 662 333 662 279 662 237 651 208 631 179 610 165 580 165 542 165 510 174 485 194 469 213 452 250 439 304 429L364 417C437 403 491 378 526 343 561 307 579 260 579 201 579 130 555 77 508 41 460 5 391-13 300-13 265-13 228-9 189-2 150 5 110 16 69 32V134C109 111 148 94 186 83 224 71 262 66 300 66 356 66 399 77 430 99 460 121 476 152 476 194 476 230 465 258 443 278 421 298 385 313 335 323L275 335C201 349 148 372 115 404 82 435 66 478 66 534 66 598 88 649 134 686 179 723 242 742 322 742 356 742 390 739 426 733 461 727 497 717 535 705Z"/>
<text fill-opacity="0" xml:space="preserve" transform="matrix(1 0 -0 1 278.6465 106.11771)" font-size="14" font-family="DejaVuSans"><tspan y="0" x="0">S</tspan></text>
<path transform="matrix(.014,0,0,-.014,287.53654,106.11771)" d="M644 673V569C610 599 575 622 537 638 499 653 460 661 418 661 334 661 270 635 226 584 182 533 160 460 160 364 160 268 182 194 226 143 270 92 334 67 418 67 460 67 499 74 537 90 575 105 610 128 644 159V56C609 32 572 15 534 4 496-7 455-13 412-13 302-13 215 20 151 87 87 154 56 246 56 364 56 481 87 573 151 641 215 708 302 742 412 742 456 742 497 736 535 725 573 713 610 696 644 673Z"/>
<text fill-opacity="0" xml:space="preserve" transform="matrix(1 0 -0 1 278.6465 106.11771)" font-size="14" font-family="DejaVuSans"><tspan y="0" x="8.89">C</tspan></text>
<path transform="matrix(.014,0,0,-.014,297.3085,106.11771)" d="M444 342C465 334 486 319 506 296 526 272 546 240 566 199L666 0H560L467 187C443 235 419 268 397 284 374 300 343 308 304 308H197V0H98V729H321C404 729 466 711 507 677 548 642 569 589 569 519 569 473 558 434 537 404 515 374 484 353 444 342ZM197 648V389H321C368 389 404 400 428 422 452 444 465 476 465 519 465 561 452 593 428 615 404 637 368 648 321 648H197Z"/>
<text fill-opacity="0" xml:space="preserve" transform="matrix(1 0 -0 1 278.6465 106.11771)" font-size="14" font-family="DejaVuSans"><tspan y="0" x="18.662">R</tspan></text>
<path transform="matrix(.014,0,0,-.014,306.476,106.11771)" d="M342 632 208 269H476L342 632ZM286 729H398L676 0H573L507 187H178L112 0H8L286 729Z"/>
<text fill-opacity="0" xml:space="preserve" transform="matrix(1 0 -0 1 278.6465 106.11771)" font-size="14" font-family="DejaVuSans"><tspan y="0" x="27.829503">A</tspan></text>
<path transform="matrix(.014,0,0,-.014,316.052,106.11771)" d="M197 648V374H321C367 374 402 385 427 409 452 433 465 467 465 511 465 555 452 588 427 612 402 636 367 648 321 648H197ZM98 729H321C402 729 464 710 506 673 548 636 569 582 569 511 569 439 548 384 506 348 464 311 402 293 321 293H197V0H98V729Z"/>
<text fill-opacity="0" xml:space="preserve" transform="matrix(1 0 -0 1 278.6465 106.11771)" font-size="14" font-family="DejaVuSans"><tspan y="0" x="37.405504">P</tspan></text>
<path transform="matrix(.014,0,0,-.014,324.49403,106.11771)" d="M98 729H197V83H552V0H98V729Z"/>
<text fill-opacity="0" xml:space="preserve" transform="matrix(1 0 -0 1 278.6465 106.11771)" font-size="14" font-family="DejaVuSans"><tspan y="0" x="45.847505">L</tspan></text>
<path transform="matrix(.0125,0,0,-.0125,163.91335,219.39832)" d="M98 729H245L431 233 618 729H765V0H669V640L481 140H382L194 640V0H98V729Z"/>
<text fill-opacity="0" xml:space="preserve" transform="matrix(1 0 -0 1 163.91335 219.39832)" font-size="12.5" font-family="DejaVuSans"><tspan y="0" x="0">M</tspan></text>
<path transform="matrix(.0125,0,0,-.0125,174.70085,219.39832)" d="M535 705V609C497 627 462 640 429 649 395 657 363 662 333 662 279 662 237 651 208 631 179 610 165 580 165 542 165 510 174 485 194 469 213 452 250 439 304 429L364 417C437 403 491 378 526 343 561 307 579 260 579 201 579 130 555 77 508 41 460 5 391-13 300-13 265-13 228-9 189-2 150 5 110 16 69 32V134C109 111 148 94 186 83 224 71 262 66 300 66 356 66 399 77 430 99 460 121 476 152 476 194 476 230 465 258 443 278 421 298 385 313 335 323L275 335C201 349 148 372 115 404 82 435 66 478 66 534 66 598 88 649 134 686 179 723 242 742 322 742 356 742 390 739 426 733 461 727 497 717 535 705Z"/>
<text fill-opacity="0" xml:space="preserve" transform="matrix(1 0 -0 1 163.91335 219.39832)" font-size="12.5" font-family="DejaVuSans"><tspan y="0" x="10.7875">S</tspan></text>
<path transform="matrix(.0125,0,0,-.0125,182.63835,219.39832)" d="M535 705V609C497 627 462 640 429 649 395 657 363 662 333 662 279 662 237 651 208 631 179 610 165 580 165 542 165 510 174 485 194 469 213 452 250 439 304 429L364 417C437 403 491 378 526 343 561 307 579 260 579 201 579 130 555 77 508 41 460 5 391-13 300-13 265-13 228-9 189-2 150 5 110 16 69 32V134C109 111 148 94 186 83 224 71 262 66 300 66 356 66 399 77 430 99 460 121 476 152 476 194 476 230 465 258 443 278 421 298 385 313 335 323L275 335C201 349 148 372 115 404 82 435 66 478 66 534 66 598 88 649 134 686 179 723 242 742 322 742 356 742 390 739 426 733 461 727 497 717 535 705Z"/>
<text fill-opacity="0" xml:space="preserve" transform="matrix(1 0 -0 1 163.91335 219.39832)" font-size="12.5" font-family="DejaVuSans"><tspan y="0" x="18.725">S</tspan></text>
<path transform="matrix(.0125,0,0,-.0125,190.57585,219.39832)" d=""/>
<text fill-opacity="0" xml:space="preserve" transform="matrix(1 0 -0 1 163.91335 219.39832)" font-size="12.5" font-family="DejaVuSans"><tspan y="0" x="26.6625"> </tspan></text>
<path transform="matrix(.0125,0,0,-.0125,194.55084,219.39832)" d="M98 729H197V83H552V0H98V729Z"/>
<text fill-opacity="0" xml:space="preserve" transform="matrix(1 0 -0 1 163.91335 219.39832)" font-size="12.5" font-family="DejaVuSans"><tspan y="0" x="30.6375">L</tspan></text>
<path transform="matrix(.0125,0,0,-.0125,201.51335,219.39832)" d="M94 547H184V0H94V547ZM94 760H184V646H94V760Z"/>
<text fill-opacity="0" xml:space="preserve" transform="matrix(1 0 -0 1 163.91335 219.39832)" font-size="12.5" font-family="DejaVuSans"><tspan y="0" x="37.600004">i</tspan></text>
<path transform="matrix(.0125,0,0,-.0125,204.98834,219.39832)" d="M549 330V0H459V327C459 379 448 417 428 443 408 469 378 482 338 482 289 482 251 466 223 435 195 404 181 362 181 309V0H91V547H181V462C202 494 227 519 257 535 286 551 320 560 358 560 420 560 468 540 500 501 532 462 549 405 549 330Z"/>
<text fill-opacity="0" xml:space="preserve" transform="matrix(1 0 -0 1 163.91335 219.39832)" font-size="12.5" font-family="DejaVuSans"><tspan y="0" x="41.075006">n</tspan></text>
<path transform="matrix(.0125,0,0,-.0125,212.91335,219.39832)" d="M562 296V252H149C153 190 171 142 205 110 238 78 284 62 344 62 378 62 412 66 444 74 476 82 509 95 541 113V28C509 14 476 3 442-3 408-9 373-13 339-13 251-13 182 12 131 62 80 112 55 181 55 268 55 357 79 428 127 481 175 533 241 560 323 560 397 560 455 536 498 489 540 441 562 377 562 296ZM472 322C471 371 457 410 431 440 404 469 368 484 324 484 274 484 234 469 204 441 174 413 156 373 152 322H472Z"/>
<text fill-opacity="0" xml:space="preserve" transform="matrix(1 0 -0 1 163.91335 219.39832)" font-size="12.5" font-family="DejaVuSans"><tspan y="0" x="49.000005">e</tspan></text>
<path transform="matrix(.0125,0,0,-.0125,220.60085,219.39832)" d="M343 275C270 275 220 266 192 250 164 233 150 205 150 165 150 133 160 107 181 89 202 70 231 61 267 61 317 61 357 78 387 114 417 149 432 196 432 255V275H343ZM522 312V0H432V83C411 49 385 25 355 10 325-5 287-13 243-13 187-13 142 2 109 33 76 64 60 106 60 159 60 220 80 266 122 298 163 329 224 345 306 345H432V354C432 395 418 427 391 450 364 472 326 484 277 484 245 484 215 480 185 472 155 464 127 453 100 439V522C132 534 164 544 195 550 226 556 256 560 286 560 365 560 424 539 463 498 502 457 522 395 522 312Z"/>
<text fill-opacity="0" xml:space="preserve" transform="matrix(1 0 -0 1 163.91335 219.39832)" font-size="12.5" font-family="DejaVuSans"><tspan y="0" x="56.687505">a</tspan></text>
<path transform="matrix(.0125,0,0,-.0125,228.26335,219.39832)" d="M411 463C401 469 390 473 378 476 366 478 353 480 339 480 288 480 249 463 222 430 194 397 181 350 181 288V0H91V547H181V462C199 495 224 520 254 536 284 552 321 560 365 560 371 560 378 559 386 559 393 558 401 557 411 555V463Z"/>
<text fill-opacity="0" xml:space="preserve" transform="matrix(1 0 -0 1 163.91335 219.39832)" font-size="12.5" font-family="DejaVuSans"><tspan y="0" x="64.350009">r</tspan></text>
<path transform="matrix(.0125,0,0,-.0125,145.47374,195.97336)" d="M98 729H245L431 233 618 729H765V0H669V640L481 140H382L194 640V0H98V729Z"/>
<text fill-opacity="0" xml:space="preserve" transform="matrix(1 0 -0 1 145.47374 195.97336)" font-size="12.5" font-family="DejaVuSans"><tspan y="0" x="0">M</tspan></text>
<path transform="matrix(.0125,0,0,-.0125,156.26125,195.97336)" d="M535 705V609C497 627 462 640 429 649 395 657 363 662 333 662 279 662 237 651 208 631 179 610 165 580 165 542 165 510 174 485 194 469 213 452 250 439 304 429L364 417C437 403 491 378 526 343 561 307 579 260 579 201 579 130 555 77 508 41 460 5 391-13 300-13 265-13 228-9 189-2 150 5 110 16 69 32V134C109 111 148 94 186 83 224 71 262 66 300 66 356 66 399 77 430 99 460 121 476 152 476 194 476 230 465 258 443 278 421 298 385 313 335 323L275 335C201 349 148 372 115 404 82 435 66 478 66 534 66 598 88 649 134 686 179 723 242 742 322 742 356 742 390 739 426 733 461 727 497 717 535 705Z"/>
<text fill-opacity="0" xml:space="preserve" transform="matrix(1 0 -0 1 145.47374 195.97336)" font-size="12.5" font-family="DejaVuSans"><tspan y="0" x="10.7875">S</tspan></text>
<path transform="matrix(.0125,0,0,-.0125,164.19875,195.97336)" d="M535 705V609C497 627 462 640 429 649 395 657 363 662 333 662 279 662 237 651 208 631 179 610 165 580 165 542 165 510 174 485 194 469 213 452 250 439 304 429L364 417C437 403 491 378 526 343 561 307 579 260 579 201 579 130 555 77 508 41 460 5 391-13 300-13 265-13 228-9 189-2 150 5 110 16 69 32V134C109 111 148 94 186 83 224 71 262 66 300 66 356 66 399 77 430 99 460 121 476 152 476 194 476 230 465 258 443 278 421 298 385 313 335 323L275 335C201 349 148 372 115 404 82 435 66 478 66 534 66 598 88 649 134 686 179 723 242 742 322 742 356 742 390 739 426 733 461 727 497 717 535 705Z"/>
<text fill-opacity="0" xml:space="preserve" transform="matrix(1 0 -0 1 145.47374 195.97336)" font-size="12.5" font-family="DejaVuSans"><tspan y="0" x="18.725">S</tspan></text>
<path transform="matrix(.0125,0,0,-.0125,172.13625,195.97336)" d=""/>
<text fill-opacity="0" xml:space="preserve" transform="matrix(1 0 -0 1 145.47374 195.97336)" font-size="12.5" font-family="DejaVuSans"><tspan y="0" x="26.6625"> </tspan></text>
<path transform="matrix(.0125,0,0,-.0125,176.11124,195.97336)" d="M98 729H197V83H552V0H98V729Z"/>
<text fill-opacity="0" xml:space="preserve" transform="matrix(1 0 -0 1 145.47374 195.97336)" font-size="12.5" font-family="DejaVuSans"><tspan y="0" x="30.6375">L</tspan></text>
<path transform="matrix(.0125,0,0,-.0125,182.855,195.97336)" d="M306 484C258 484 220 465 192 427 164 389 150 338 150 273 150 207 163 156 191 118 219 80 257 62 306 62 354 62 392 80 420 118 448 156 462 207 462 273 462 337 448 389 420 427 392 465 354 484 306 484ZM306 560C384 560 445 534 490 484 534 433 557 363 557 273 557 183 534 113 490 63 445 12 384-13 306-13 227-13 165 12 121 63 77 113 55 183 55 273 55 363 77 433 121 484 165 534 227 560 306 560Z"/>
<text fill-opacity="0" xml:space="preserve" transform="matrix(1 0 -0 1 145.47374 195.97336)" font-size="12.5" font-family="DejaVuSans"><tspan y="0" x="37.381254">o</tspan></text>
<path transform="matrix(.0125,0,0,-.0125,190.50499,195.97336)" d="M454 280C454 344 440 395 414 431 387 467 349 485 301 485 253 485 215 467 188 431 161 395 148 344 148 280 148 215 161 165 188 129 215 93 253 75 301 75 349 75 387 93 414 129 440 165 454 215 454 280ZM544 68C544-24 523-93 482-139 440-184 377-207 292-207 260-207 231-204 203-200 175-195 147-188 121-178V-91C147-105 173-115 199-122 225-129 251-133 278-133 336-133 380-117 410-87 439-56 454-10 454 52V96C435 64 411 40 382 24 353 8 319 0 279 0 211 0 157 25 116 76 75 127 55 195 55 280 55 364 75 432 116 483 157 534 211 560 279 560 319 560 353 552 382 536 411 520 435 496 454 464V547H544V68Z"/>
<text fill-opacity="0" xml:space="preserve" transform="matrix(1 0 -0 1 145.47374 195.97336)" font-size="12.5" font-family="DejaVuSans"><tspan y="0" x="45.031255">g</tspan></text>
<path transform="matrix(.0125,0,0,-.0125,198.44249,195.97336)" d=""/>
<text fill-opacity="0" xml:space="preserve" transform="matrix(1 0 -0 1 145.47374 195.97336)" font-size="12.5" font-family="DejaVuSans"><tspan y="0" x="52.968755"> </tspan></text>
<path transform="matrix(.0125,0,0,-.0125,202.4175,195.97336)" d="M460 627V355H732V272H460V0H378V272H106V355H378V627H460Z"/>
<text fill-opacity="0" xml:space="preserve" transform="matrix(1 0 -0 1 145.47374 195.97336)" font-size="12.5" font-family="DejaVuSans"><tspan y="0" x="56.943754">+</tspan></text>
<path transform="matrix(.0125,0,0,-.0125,212.89249,195.97336)" d=""/>
<text fill-opacity="0" xml:space="preserve" transform="matrix(1 0 -0 1 145.47374 195.97336)" font-size="12.5" font-family="DejaVuSans"><tspan y="0" x="67.418758"> </tspan></text>
<path transform="matrix(.0125,0,0,-.0125,216.8675,195.97336)" d="M98 729H197V83H552V0H98V729Z"/>
<text fill-opacity="0" xml:space="preserve" transform="matrix(1 0 -0 1 145.47374 195.97336)" font-size="12.5" font-family="DejaVuSans"><tspan y="0" x="71.39375">L</tspan></text>
<path transform="matrix(.0125,0,0,-.0125,223.82999,195.97336)" d="M94 547H184V0H94V547ZM94 760H184V646H94V760Z"/>
<text fill-opacity="0" xml:space="preserve" transform="matrix(1 0 -0 1 145.47374 195.97336)" font-size="12.5" font-family="DejaVuSans"><tspan y="0" x="78.356258">i</tspan></text>
<path transform="matrix(.0125,0,0,-.0125,227.305,195.97336)" d="M549 330V0H459V327C459 379 448 417 428 443 408 469 378 482 338 482 289 482 251 466 223 435 195 404 181 362 181 309V0H91V547H181V462C202 494 227 519 257 535 286 551 320 560 358 560 420 560 468 540 500 501 532 462 549 405 549 330Z"/>
<text fill-opacity="0" xml:space="preserve" transform="matrix(1 0 -0 1 145.47374 195.97336)" font-size="12.5" font-family="DejaVuSans"><tspan y="0" x="81.83125">n</tspan></text>
<path transform="matrix(.0125,0,0,-.0125,235.23,195.97336)" d="M562 296V252H149C153 190 171 142 205 110 238 78 284 62 344 62 378 62 412 66 444 74 476 82 509 95 541 113V28C509 14 476 3 442-3 408-9 373-13 339-13 251-13 182 12 131 62 80 112 55 181 55 268 55 357 79 428 127 481 175 533 241 560 323 560 397 560 455 536 498 489 540 441 562 377 562 296ZM472 322C471 371 457 410 431 440 404 469 368 484 324 484 274 484 234 469 204 441 174 413 156 373 152 322H472Z"/>
<text fill-opacity="0" xml:space="preserve" transform="matrix(1 0 -0 1 145.47374 195.97336)" font-size="12.5" font-family="DejaVuSans"><tspan y="0" x="89.756259">e</tspan></text>
<path transform="matrix(.0125,0,0,-.0125,242.9175,195.97336)" d="M343 275C270 275 220 266 192 250 164 233 150 205 150 165 150 133 160 107 181 89 202 70 231 61 267 61 317 61 357 78 387 114 417 149 432 196 432 255V275H343ZM522 312V0H432V83C411 49 385 25 355 10 325-5 287-13 243-13 187-13 142 2 109 33 76 64 60 106 60 159 60 220 80 266 122 298 163 329 224 345 306 345H432V354C432 395 418 427 391 450 364 472 326 484 277 484 245 484 215 480 185 472 155 464 127 453 100 439V522C132 534 164 544 195 550 226 556 256 560 286 560 365 560 424 539 463 498 502 457 522 395 522 312Z"/>
<text fill-opacity="0" xml:space="preserve" transform="matrix(1 0 -0 1 145.47374 195.97336)" font-size="12.5" font-family="DejaVuSans"><tspan y="0" x="97.443759">a</tspan></text>
<path transform="matrix(.0125,0,0,-.0125,250.57999,195.97336)" d="M411 463C401 469 390 473 378 476 366 478 353 480 339 480 288 480 249 463 222 430 194 397 181 350 181 288V0H91V547H181V462C199 495 224 520 254 536 284 552 321 560 365 560 371 560 378 559 386 559 393 558 401 557 411 555V463Z"/>
<text fill-opacity="0" xml:space="preserve" transform="matrix(1 0 -0 1 145.47374 195.97336)" font-size="12.5" font-family="DejaVuSans"><tspan y="0" x="105.106258">r</tspan></text>
<path transform="matrix(.0125,0,0,-.0125,139.75545,207.97733)" d="M98 729H245L431 233 618 729H765V0H669V640L481 140H382L194 640V0H98V729Z"/>
<text fill-opacity="0" xml:space="preserve" transform="matrix(1 0 -0 1 139.75545 207.97733)" font-size="12.5" font-family="DejaVuSans"><tspan y="0" x="0">M</tspan></text>
<path transform="matrix(.0125,0,0,-.0125,150.54296,207.97733)" d="M535 705V609C497 627 462 640 429 649 395 657 363 662 333 662 279 662 237 651 208 631 179 610 165 580 165 542 165 510 174 485 194 469 213 452 250 439 304 429L364 417C437 403 491 378 526 343 561 307 579 260 579 201 579 130 555 77 508 41 460 5 391-13 300-13 265-13 228-9 189-2 150 5 110 16 69 32V134C109 111 148 94 186 83 224 71 262 66 300 66 356 66 399 77 430 99 460 121 476 152 476 194 476 230 465 258 443 278 421 298 385 313 335 323L275 335C201 349 148 372 115 404 82 435 66 478 66 534 66 598 88 649 134 686 179 723 242 742 322 742 356 742 390 739 426 733 461 727 497 717 535 705Z"/>
<text fill-opacity="0" xml:space="preserve" transform="matrix(1 0 -0 1 139.75545 207.97733)" font-size="12.5" font-family="DejaVuSans"><tspan y="0" x="10.7875">S</tspan></text>
<path transform="matrix(.0125,0,0,-.0125,158.48046,207.97733)" d="M535 705V609C497 627 462 640 429 649 395 657 363 662 333 662 279 662 237 651 208 631 179 610 165 580 165 542 165 510 174 485 194 469 213 452 250 439 304 429L364 417C437 403 491 378 526 343 561 307 579 260 579 201 579 130 555 77 508 41 460 5 391-13 300-13 265-13 228-9 189-2 150 5 110 16 69 32V134C109 111 148 94 186 83 224 71 262 66 300 66 356 66 399 77 430 99 460 121 476 152 476 194 476 230 465 258 443 278 421 298 385 313 335 323L275 335C201 349 148 372 115 404 82 435 66 478 66 534 66 598 88 649 134 686 179 723 242 742 322 742 356 742 390 739 426 733 461 727 497 717 535 705Z"/>
<text fill-opacity="0" xml:space="preserve" transform="matrix(1 0 -0 1 139.75545 207.97733)" font-size="12.5" font-family="DejaVuSans"><tspan y="0" x="18.725">S</tspan></text>
<path transform="matrix(.0125,0,0,-.0125,166.41796,207.97733)" d=""/>
<text fill-opacity="0" xml:space="preserve" transform="matrix(1 0 -0 1 139.75545 207.97733)" font-size="12.5" font-family="DejaVuSans"><tspan y="0" x="26.6625"> </tspan></text>
<path transform="matrix(.0125,0,0,-.0125,170.39295,207.97733)" d="M444 342C465 334 486 319 506 296 526 272 546 240 566 199L666 0H560L467 187C443 235 419 268 397 284 374 300 343 308 304 308H197V0H98V729H321C404 729 466 711 507 677 548 642 569 589 569 519 569 473 558 434 537 404 515 374 484 353 444 342ZM197 648V389H321C368 389 404 400 428 422 452 444 465 476 465 519 465 561 452 593 428 615 404 637 368 648 321 648H197Z"/>
<text fill-opacity="0" xml:space="preserve" transform="matrix(1 0 -0 1 139.75545 207.97733)" font-size="12.5" font-family="DejaVuSans"><tspan y="0" x="30.6375">R</tspan></text>
<path transform="matrix(.0125,0,0,-.0125,178.51795,207.97733)" d="M562 296V252H149C153 190 171 142 205 110 238 78 284 62 344 62 378 62 412 66 444 74 476 82 509 95 541 113V28C509 14 476 3 442-3 408-9 373-13 339-13 251-13 182 12 131 62 80 112 55 181 55 268 55 357 79 428 127 481 175 533 241 560 323 560 397 560 455 536 498 489 540 441 562 377 562 296ZM472 322C471 371 457 410 431 440 404 469 368 484 324 484 274 484 234 469 204 441 174 413 156 373 152 322H472Z"/>
<text fill-opacity="0" xml:space="preserve" transform="matrix(1 0 -0 1 139.75545 207.97733)" font-size="12.5" font-family="DejaVuSans"><tspan y="0" x="38.7625">e</tspan></text>
<path transform="matrix(.0125,0,0,-.0125,186.20545,207.97733)" d="M30 547H125L296 88 467 547H562L357 0H235L30 547Z"/>
<text fill-opacity="0" xml:space="preserve" transform="matrix(1 0 -0 1 139.75545 207.97733)" font-size="12.5" font-family="DejaVuSans"><tspan y="0" x="46.45">v</tspan></text>
<path transform="matrix(.0125,0,0,-.0125,193.60546,207.97733)" d="M94 547H184V0H94V547ZM94 760H184V646H94V760Z"/>
<text fill-opacity="0" xml:space="preserve" transform="matrix(1 0 -0 1 139.75545 207.97733)" font-size="12.5" font-family="DejaVuSans"><tspan y="0" x="53.850004">i</tspan></text>
<path transform="matrix(.0125,0,0,-.0125,197.08045,207.97733)" d="M443 531V446C417 458 391 468 364 475 336 481 308 485 279 485 234 485 200 478 178 464 156 450 145 430 145 403 145 382 153 366 169 354 185 342 217 330 265 320L296 313C360 299 405 279 432 255 458 230 472 195 472 151 472 100 452 60 412 31 372 1 316-13 246-13 216-13 186-10 154-5 122 0 89 8 54 20V113C87 95 120 82 152 74 184 65 216 61 248 61 290 61 323 68 346 82 368 96 380 117 380 144 380 168 371 187 355 200 339 213 303 226 247 238L216 245C160 257 119 275 95 299 70 323 58 356 58 399 58 450 76 490 112 518 148 546 200 560 268 560 301 560 332 557 362 552 391 547 418 540 443 531Z"/>
<text fill-opacity="0" xml:space="preserve" transform="matrix(1 0 -0 1 139.75545 207.97733)" font-size="12.5" font-family="DejaVuSans"><tspan y="0" x="57.325006">s</tspan></text>
<path transform="matrix(.0125,0,0,-.0125,203.59296,207.97733)" d="M94 547H184V0H94V547ZM94 760H184V646H94V760Z"/>
<text fill-opacity="0" xml:space="preserve" transform="matrix(1 0 -0 1 139.75545 207.97733)" font-size="12.5" font-family="DejaVuSans"><tspan y="0" x="63.837507">i</tspan></text>
<path transform="matrix(.0125,0,0,-.0125,207.06797,207.97733)" d="M183 702V547H368V477H183V180C183 135 189 106 201 94 213 81 238 75 276 75H368V0H276C206 0 158 13 132 39 106 65 93 112 93 180V477H27V547H93V702H183Z"/>
<text fill-opacity="0" xml:space="preserve" transform="matrix(1 0 -0 1 139.75545 207.97733)" font-size="12.5" font-family="DejaVuSans"><tspan y="0" x="67.31251">t</tspan></text>
<path transform="matrix(.0125,0,0,-.0125,211.96796,207.97733)" d="M562 296V252H149C153 190 171 142 205 110 238 78 284 62 344 62 378 62 412 66 444 74 476 82 509 95 541 113V28C509 14 476 3 442-3 408-9 373-13 339-13 251-13 182 12 131 62 80 112 55 181 55 268 55 357 79 428 127 481 175 533 241 560 323 560 397 560 455 536 498 489 540 441 562 377 562 296ZM472 322C471 371 457 410 431 440 404 469 368 484 324 484 274 484 234 469 204 441 174 413 156 373 152 322H472Z"/>
<text fill-opacity="0" xml:space="preserve" transform="matrix(1 0 -0 1 139.75545 207.97733)" font-size="12.5" font-family="DejaVuSans"><tspan y="0" x="72.21251">e</tspan></text>
<path transform="matrix(.0125,0,0,-.0125,219.65546,207.97733)" d="M454 464V760H544V0H454V82C435 49 411 25 382 10 353-5 319-13 279-13 213-13 159 13 117 65 75 117 55 187 55 273 55 359 75 428 117 481 159 533 213 560 279 560 319 560 353 552 382 536 411 520 435 496 454 464ZM148 273C148 207 161 155 188 117 215 79 252 61 300 61 348 61 385 79 413 117 440 155 454 207 454 273 454 339 440 390 413 428 385 466 348 485 300 485 252 485 215 466 188 428 161 390 148 339 148 273Z"/>
<text fill-opacity="0" xml:space="preserve" transform="matrix(1 0 -0 1 139.75545 207.97733)" font-size="12.5" font-family="DejaVuSans"><tspan y="0" x="79.90001">d</tspan></text>
<path transform="matrix(.0125,0,0,-.0125,160.08617,177.465)" d="M98 729H245L431 233 618 729H765V0H669V640L481 140H382L194 640V0H98V729Z"/>
<text fill-opacity="0" xml:space="preserve" transform="matrix(1 0 -0 1 160.08617 177.465)" font-size="12.5" font-family="DejaVuSans"><tspan y="0" x="0">M</tspan></text>
<path transform="matrix(.0125,0,0,-.0125,170.87368,177.465)" d="M535 705V609C497 627 462 640 429 649 395 657 363 662 333 662 279 662 237 651 208 631 179 610 165 580 165 542 165 510 174 485 194 469 213 452 250 439 304 429L364 417C437 403 491 378 526 343 561 307 579 260 579 201 579 130 555 77 508 41 460 5 391-13 300-13 265-13 228-9 189-2 150 5 110 16 69 32V134C109 111 148 94 186 83 224 71 262 66 300 66 356 66 399 77 430 99 460 121 476 152 476 194 476 230 465 258 443 278 421 298 385 313 335 323L275 335C201 349 148 372 115 404 82 435 66 478 66 534 66 598 88 649 134 686 179 723 242 742 322 742 356 742 390 739 426 733 461 727 497 717 535 705Z"/>
<text fill-opacity="0" xml:space="preserve" transform="matrix(1 0 -0 1 160.08617 177.465)" font-size="12.5" font-family="DejaVuSans"><tspan y="0" x="10.7875">S</tspan></text>
<path transform="matrix(.0125,0,0,-.0125,178.81118,177.465)" d="M535 705V609C497 627 462 640 429 649 395 657 363 662 333 662 279 662 237 651 208 631 179 610 165 580 165 542 165 510 174 485 194 469 213 452 250 439 304 429L364 417C437 403 491 378 526 343 561 307 579 260 579 201 579 130 555 77 508 41 460 5 391-13 300-13 265-13 228-9 189-2 150 5 110 16 69 32V134C109 111 148 94 186 83 224 71 262 66 300 66 356 66 399 77 430 99 460 121 476 152 476 194 476 230 465 258 443 278 421 298 385 313 335 323L275 335C201 349 148 372 115 404 82 435 66 478 66 534 66 598 88 649 134 686 179 723 242 742 322 742 356 742 390 739 426 733 461 727 497 717 535 705Z"/>
<text fill-opacity="0" xml:space="preserve" transform="matrix(1 0 -0 1 160.08617 177.465)" font-size="12.5" font-family="DejaVuSans"><tspan y="0" x="18.725">S</tspan></text>
<path transform="matrix(.0125,0,0,-.0125,186.74868,177.465)" d=""/>
<text fill-opacity="0" xml:space="preserve" transform="matrix(1 0 -0 1 160.08617 177.465)" font-size="12.5" font-family="DejaVuSans"><tspan y="0" x="26.6625"> </tspan></text>
<path transform="matrix(.0125,0,0,-.0125,190.72367,177.465)" d="M444 342C465 334 486 319 506 296 526 272 546 240 566 199L666 0H560L467 187C443 235 419 268 397 284 374 300 343 308 304 308H197V0H98V729H321C404 729 466 711 507 677 548 642 569 589 569 519 569 473 558 434 537 404 515 374 484 353 444 342ZM197 648V389H321C368 389 404 400 428 422 452 444 465 476 465 519 465 561 452 593 428 615 404 637 368 648 321 648H197Z"/>
<text fill-opacity="0" xml:space="preserve" transform="matrix(1 0 -0 1 160.08617 177.465)" font-size="12.5" font-family="DejaVuSans"><tspan y="0" x="30.6375">R</tspan></text>
<path transform="matrix(.0125,0,0,-.0125,199.14554,177.465)" d="M343 275C270 275 220 266 192 250 164 233 150 205 150 165 150 133 160 107 181 89 202 70 231 61 267 61 317 61 357 78 387 114 417 149 432 196 432 255V275H343ZM522 312V0H432V83C411 49 385 25 355 10 325-5 287-13 243-13 187-13 142 2 109 33 76 64 60 106 60 159 60 220 80 266 122 298 163 329 224 345 306 345H432V354C432 395 418 427 391 450 364 472 326 484 277 484 245 484 215 480 185 472 155 464 127 453 100 439V522C132 534 164 544 195 550 226 556 256 560 286 560 365 560 424 539 463 498 502 457 522 395 522 312Z"/>
<text fill-opacity="0" xml:space="preserve" transform="matrix(1 0 -0 1 160.08617 177.465)" font-size="12.5" font-family="DejaVuSans"><tspan y="0" x="39.059377">a</tspan></text>
<path transform="matrix(.0125,0,0,-.0125,206.80805,177.465)" d="M549 330V0H459V327C459 379 448 417 428 443 408 469 378 482 338 482 289 482 251 466 223 435 195 404 181 362 181 309V0H91V547H181V462C202 494 227 519 257 535 286 551 320 560 358 560 420 560 468 540 500 501 532 462 549 405 549 330Z"/>
<text fill-opacity="0" xml:space="preserve" transform="matrix(1 0 -0 1 160.08617 177.465)" font-size="12.5" font-family="DejaVuSans"><tspan y="0" x="46.721879">n</tspan></text>
<path transform="matrix(.0125,0,0,-.0125,214.73305,177.465)" d="M454 464V760H544V0H454V82C435 49 411 25 382 10 353-5 319-13 279-13 213-13 159 13 117 65 75 117 55 187 55 273 55 359 75 428 117 481 159 533 213 560 279 560 319 560 353 552 382 536 411 520 435 496 454 464ZM148 273C148 207 161 155 188 117 215 79 252 61 300 61 348 61 385 79 413 117 440 155 454 207 454 273 454 339 440 390 413 428 385 466 348 485 300 485 252 485 215 466 188 428 161 390 148 339 148 273Z"/>
<text fill-opacity="0" xml:space="preserve" transform="matrix(1 0 -0 1 160.08617 177.465)" font-size="12.5" font-family="DejaVuSans"><tspan y="0" x="54.646879">d</tspan></text>
<path transform="matrix(.0125,0,0,-.0125,222.67055,177.465)" d="M306 484C258 484 220 465 192 427 164 389 150 338 150 273 150 207 163 156 191 118 219 80 257 62 306 62 354 62 392 80 420 118 448 156 462 207 462 273 462 337 448 389 420 427 392 465 354 484 306 484ZM306 560C384 560 445 534 490 484 534 433 557 363 557 273 557 183 534 113 490 63 445 12 384-13 306-13 227-13 165 12 121 63 77 113 55 183 55 273 55 363 77 433 121 484 165 534 227 560 306 560Z"/>
<text fill-opacity="0" xml:space="preserve" transform="matrix(1 0 -0 1 160.08617 177.465)" font-size="12.5" font-family="DejaVuSans"><tspan y="0" x="62.584379">o</tspan></text>
<path transform="matrix(.0125,0,0,-.0125,230.32054,177.465)" d="M520 442C542 482 569 511 600 531 631 550 668 560 711 560 767 560 811 540 842 500 873 460 889 403 889 330V0H799V327C799 379 789 418 771 444 752 469 724 482 686 482 639 482 602 466 575 435 548 404 535 362 535 309V0H445V327C445 379 435 418 417 444 398 469 369 482 331 482 285 482 248 466 221 435 194 404 181 362 181 309V0H91V547H181V462C201 495 226 520 255 536 283 552 317 560 357 560 397 560 430 550 458 530 486 510 506 480 520 442Z"/>
<text fill-opacity="0" xml:space="preserve" transform="matrix(1 0 -0 1 160.08617 177.465)" font-size="12.5" font-family="DejaVuSans"><tspan y="0" x="70.234378">m</tspan></text>
<path transform="matrix(.0125,0,0,-.0125,258.0609,166.6727)" d="M98 729H245L431 233 618 729H765V0H669V640L481 140H382L194 640V0H98V729Z"/>
<text fill-opacity="0" xml:space="preserve" transform="matrix(1 0 -0 1 258.0609 166.6727)" font-size="12.5" font-family="DejaVuSans"><tspan y="0" x="0">M</tspan></text>
<path transform="matrix(.0125,0,0,-.0125,268.84843,166.6727)" d="M535 705V609C497 627 462 640 429 649 395 657 363 662 333 662 279 662 237 651 208 631 179 610 165 580 165 542 165 510 174 485 194 469 213 452 250 439 304 429L364 417C437 403 491 378 526 343 561 307 579 260 579 201 579 130 555 77 508 41 460 5 391-13 300-13 265-13 228-9 189-2 150 5 110 16 69 32V134C109 111 148 94 186 83 224 71 262 66 300 66 356 66 399 77 430 99 460 121 476 152 476 194 476 230 465 258 443 278 421 298 385 313 335 323L275 335C201 349 148 372 115 404 82 435 66 478 66 534 66 598 88 649 134 686 179 723 242 742 322 742 356 742 390 739 426 733 461 727 497 717 535 705Z"/>
<text fill-opacity="0" xml:space="preserve" transform="matrix(1 0 -0 1 258.0609 166.6727)" font-size="12.5" font-family="DejaVuSans"><tspan y="0" x="10.7875">S</tspan></text>
<path transform="matrix(.0125,0,0,-.0125,276.78593,166.6727)" d="M49 314H312V234H49V314Z"/>
<text fill-opacity="0" xml:space="preserve" transform="matrix(1 0 -0 1 258.0609 166.6727)" font-size="12.5" font-family="DejaVuSans"><tspan y="0" x="18.725">-</tspan></text>
<path transform="matrix(.0125,0,0,-.0125,281.2984,166.6727)" d="M644 673V569C610 599 575 622 537 638 499 653 460 661 418 661 334 661 270 635 226 584 182 533 160 460 160 364 160 268 182 194 226 143 270 92 334 67 418 67 460 67 499 74 537 90 575 105 610 128 644 159V56C609 32 572 15 534 4 496-7 455-13 412-13 302-13 215 20 151 87 87 154 56 246 56 364 56 481 87 573 151 641 215 708 302 742 412 742 456 742 497 736 535 725 573 713 610 696 644 673Z"/>
<text fill-opacity="0" xml:space="preserve" transform="matrix(1 0 -0 1 258.0609 166.6727)" font-size="12.5" font-family="DejaVuSans"><tspan y="0" x="23.237502">C</tspan></text>
<path transform="matrix(.0125,0,0,-.0125,290.0234,166.6727)" d="M98 729H197V83H552V0H98V729Z"/>
<text fill-opacity="0" xml:space="preserve" transform="matrix(1 0 -0 1 258.0609 166.6727)" font-size="12.5" font-family="DejaVuSans"><tspan y="0" x="31.962502">L</tspan></text>
<path transform="matrix(.0125,0,0,-.0125,297.26716,166.6727)" d="M342 632 208 269H476L342 632ZM286 729H398L676 0H573L507 187H178L112 0H8L286 729Z"/>
<text fill-opacity="0" xml:space="preserve" transform="matrix(1 0 -0 1 258.0609 166.6727)" font-size="12.5" font-family="DejaVuSans"><tspan y="0" x="39.206254">A</tspan></text>
<path transform="matrix(.0125,0,0,-.0125,305.81718,166.6727)" d="M197 648V374H321C367 374 402 385 427 409 452 433 465 467 465 511 465 555 452 588 427 612 402 636 367 648 321 648H197ZM98 729H321C402 729 464 710 506 673 548 636 569 582 569 511 569 439 548 384 506 348 464 311 402 293 321 293H197V0H98V729Z"/>
<text fill-opacity="0" xml:space="preserve" transform="matrix(1 0 -0 1 258.0609 166.6727)" font-size="12.5" font-family="DejaVuSans"><tspan y="0" x="47.756254">P</tspan></text>
<path transform="matrix(.0125,0,0,-.0125,171.1878,163.87766)" d="M197 648V374H321C367 374 402 385 427 409 452 433 465 467 465 511 465 555 452 588 427 612 402 636 367 648 321 648H197ZM98 729H321C402 729 464 710 506 673 548 636 569 582 569 511 569 439 548 384 506 348 464 311 402 293 321 293H197V0H98V729Z"/>
<text fill-opacity="0" xml:space="preserve" transform="matrix(1 0 -0 1 171.1878 163.87766)" font-size="12.5" font-family="DejaVuSans"><tspan y="0" x="0">P</tspan></text>
<path transform="matrix(.0125,0,0,-.0125,177.92844,163.87766)" d="M342 632 208 269H476L342 632ZM286 729H398L676 0H573L507 187H178L112 0H8L286 729Z"/>
<text fill-opacity="0" xml:space="preserve" transform="matrix(1 0 -0 1 171.1878 163.87766)" font-size="12.5" font-family="DejaVuSans"><tspan y="0" x="6.7406256">A</tspan></text>
<path transform="matrix(.0125,0,0,-.0125,186.47843,163.87766)" d="M98 729H231L554 119V729H650V0H517L194 610V0H98V729Z"/>
<text fill-opacity="0" xml:space="preserve" transform="matrix(1 0 -0 1 171.1878 163.87766)" font-size="12.5" font-family="DejaVuSans"><tspan y="0" x="15.290626">N</tspan></text>
<path transform="matrix(.0125,0,0,-.0125,195.82843,163.87766)" d="M98 729H231L554 119V729H650V0H517L194 610V0H98V729Z"/>
<text fill-opacity="0" xml:space="preserve" transform="matrix(1 0 -0 1 171.1878 163.87766)" font-size="12.5" font-family="DejaVuSans"><tspan y="0" x="24.640625">N</tspan></text>
<path transform="matrix(.0125,0,0,-.0125,205.17844,163.87766)" d="M443 531V446C417 458 391 468 364 475 336 481 308 485 279 485 234 485 200 478 178 464 156 450 145 430 145 403 145 382 153 366 169 354 185 342 217 330 265 320L296 313C360 299 405 279 432 255 458 230 472 195 472 151 472 100 452 60 412 31 372 1 316-13 246-13 216-13 186-10 154-5 122 0 89 8 54 20V113C87 95 120 82 152 74 184 65 216 61 248 61 290 61 323 68 346 82 368 96 380 117 380 144 380 168 371 187 355 200 339 213 303 226 247 238L216 245C160 257 119 275 95 299 70 323 58 356 58 399 58 450 76 490 112 518 148 546 200 560 268 560 301 560 332 557 362 552 391 547 418 540 443 531Z"/>
<text fill-opacity="0" xml:space="preserve" transform="matrix(1 0 -0 1 171.1878 163.87766)" font-size="12.5" font-family="DejaVuSans"><tspan y="0" x="33.990625">s</tspan></text>
<path transform="matrix(.0125,0,0,-.0125,88.149448,29.37976)" d="M535 705V609C497 627 462 640 429 649 395 657 363 662 333 662 279 662 237 651 208 631 179 610 165 580 165 542 165 510 174 485 194 469 213 452 250 439 304 429L364 417C437 403 491 378 526 343 561 307 579 260 579 201 579 130 555 77 508 41 460 5 391-13 300-13 265-13 228-9 189-2 150 5 110 16 69 32V134C109 111 148 94 186 83 224 71 262 66 300 66 356 66 399 77 430 99 460 121 476 152 476 194 476 230 465 258 443 278 421 298 385 313 335 323L275 335C201 349 148 372 115 404 82 435 66 478 66 534 66 598 88 649 134 686 179 723 242 742 322 742 356 742 390 739 426 733 461 727 497 717 535 705Z" fill="#ff0000"/>
<text fill-opacity="0" xml:space="preserve" transform="matrix(1 0 -0 1 88.149448 29.37976)" font-size="12.5" font-family="DejaVuSans"><tspan y="0" x="0">S</tspan></text>
<path transform="matrix(.0125,0,0,-.0125,96.086948,29.37976)" d="M85 216V547H175V219C175 167 185 129 205 103 225 77 255 64 296 64 344 64 383 79 411 110 439 141 453 183 453 237V547H543V0H453V84C431 50 405 26 377 10 348-5 315-13 277-13 214-13 166 6 134 45 101 83 85 140 85 216ZM311 560V560Z" fill="#ff0000"/>
<text fill-opacity="0" xml:space="preserve" transform="matrix(1 0 -0 1 88.149448 29.37976)" font-size="12.5" font-family="DejaVuSans"><tspan y="0" x="7.9375007">u</tspan></text>
<path transform="matrix(.0125,0,0,-.0125,104.01195,29.37976)" d="M181 82V-207H91V547H181V464C199 496 223 520 252 536 281 552 316 560 356 560 422 560 476 533 518 481 559 428 580 359 580 273 580 187 559 117 518 65 476 13 422-13 356-13 316-13 281-5 252 10 223 25 199 49 181 82ZM487 273C487 339 473 390 446 428 418 466 381 485 334 485 286 485 249 466 222 428 194 390 181 339 181 273 181 207 194 155 222 117 249 79 286 61 334 61 381 61 418 79 446 117 473 155 487 207 487 273Z" fill="#ff0000"/>
<text fill-opacity="0" xml:space="preserve" transform="matrix(1 0 -0 1 88.149448 29.37976)" font-size="12.5" font-family="DejaVuSans"><tspan y="0" x="15.862501">p</tspan></text>
<path transform="matrix(.0125,0,0,-.0125,111.94945,29.37976)" d="M562 296V252H149C153 190 171 142 205 110 238 78 284 62 344 62 378 62 412 66 444 74 476 82 509 95 541 113V28C509 14 476 3 442-3 408-9 373-13 339-13 251-13 182 12 131 62 80 112 55 181 55 268 55 357 79 428 127 481 175 533 241 560 323 560 397 560 455 536 498 489 540 441 562 377 562 296ZM472 322C471 371 457 410 431 440 404 469 368 484 324 484 274 484 234 469 204 441 174 413 156 373 152 322H472Z" fill="#ff0000"/>
<text fill-opacity="0" xml:space="preserve" transform="matrix(1 0 -0 1 88.149448 29.37976)" font-size="12.5" font-family="DejaVuSans"><tspan y="0" x="23.800002">e</tspan></text>
<path transform="matrix(.0125,0,0,-.0125,119.63695,29.37976)" d="M411 463C401 469 390 473 378 476 366 478 353 480 339 480 288 480 249 463 222 430 194 397 181 350 181 288V0H91V547H181V462C199 495 224 520 254 536 284 552 321 560 365 560 371 560 378 559 386 559 393 558 401 557 411 555V463Z" fill="#ff0000"/>
<text fill-opacity="0" xml:space="preserve" transform="matrix(1 0 -0 1 88.149448 29.37976)" font-size="12.5" font-family="DejaVuSans"><tspan y="0" x="31.487502">r</tspan></text>
<path transform="matrix(.0125,0,0,-.0125,124.774448,29.37976)" d="M30 547H125L296 88 467 547H562L357 0H235L30 547Z" fill="#ff0000"/>
<text fill-opacity="0" xml:space="preserve" transform="matrix(1 0 -0 1 88.149448 29.37976)" font-size="12.5" font-family="DejaVuSans"><tspan y="0" x="36.625">v</tspan></text>
<path transform="matrix(.0125,0,0,-.0125,132.17444,29.37976)" d="M94 547H184V0H94V547ZM94 760H184V646H94V760Z" fill="#ff0000"/>
<text fill-opacity="0" xml:space="preserve" transform="matrix(1 0 -0 1 88.149448 29.37976)" font-size="12.5" font-family="DejaVuSans"><tspan y="0" x="44.025">i</tspan></text>
<path transform="matrix(.0125,0,0,-.0125,135.64945,29.37976)" d="M443 531V446C417 458 391 468 364 475 336 481 308 485 279 485 234 485 200 478 178 464 156 450 145 430 145 403 145 382 153 366 169 354 185 342 217 330 265 320L296 313C360 299 405 279 432 255 458 230 472 195 472 151 472 100 452 60 412 31 372 1 316-13 246-13 216-13 186-10 154-5 122 0 89 8 54 20V113C87 95 120 82 152 74 184 65 216 61 248 61 290 61 323 68 346 82 368 96 380 117 380 144 380 168 371 187 355 200 339 213 303 226 247 238L216 245C160 257 119 275 95 299 70 323 58 356 58 399 58 450 76 490 112 518 148 546 200 560 268 560 301 560 332 557 362 552 391 547 418 540 443 531Z" fill="#ff0000"/>
<text fill-opacity="0" xml:space="preserve" transform="matrix(1 0 -0 1 88.149448 29.37976)" font-size="12.5" font-family="DejaVuSans"><tspan y="0" x="47.5">s</tspan></text>
<path transform="matrix(.0125,0,0,-.0125,142.16194,29.37976)" d="M562 296V252H149C153 190 171 142 205 110 238 78 284 62 344 62 378 62 412 66 444 74 476 82 509 95 541 113V28C509 14 476 3 442-3 408-9 373-13 339-13 251-13 182 12 131 62 80 112 55 181 55 268 55 357 79 428 127 481 175 533 241 560 323 560 397 560 455 536 498 489 540 441 562 377 562 296ZM472 322C471 371 457 410 431 440 404 469 368 484 324 484 274 484 234 469 204 441 174 413 156 373 152 322H472Z" fill="#ff0000"/>
<text fill-opacity="0" xml:space="preserve" transform="matrix(1 0 -0 1 88.149448 29.37976)" font-size="12.5" font-family="DejaVuSans"><tspan y="0" x="54.0125">e</tspan></text>
<path transform="matrix(.0125,0,0,-.0125,149.84944,29.37976)" d="M454 464V760H544V0H454V82C435 49 411 25 382 10 353-5 319-13 279-13 213-13 159 13 117 65 75 117 55 187 55 273 55 359 75 428 117 481 159 533 213 560 279 560 319 560 353 552 382 536 411 520 435 496 454 464ZM148 273C148 207 161 155 188 117 215 79 252 61 300 61 348 61 385 79 413 117 440 155 454 207 454 273 454 339 440 390 413 428 385 466 348 485 300 485 252 485 215 466 188 428 161 390 148 339 148 273Z" fill="#ff0000"/>
<text fill-opacity="0" xml:space="preserve" transform="matrix(1 0 -0 1 88.149448 29.37976)" font-size="12.5" font-family="DejaVuSans"><tspan y="0" x="61.7">d</tspan></text>
</svg>
